<svg xmlns="http://www.w3.org/2000/svg"><ellipse cx="47.5" cy="81" rx="9.5" ry="15"/><path d="M57 81c0 8.3-4.2 15-9.5 15S38 89.3 38 81s4 0 19 0z" fill="#010101" opacity=".1"/><ellipse cx="44.5" cy="81" rx="9.5" ry="15"/><ellipse cx="44.5" cy="81" rx="9.5" ry="15" fill="#010101" opacity=".6"/><path d="M49 80.5c0 4.7-2.4 8.5-5.4 8.5-.9 0-4.5.1-4.5.1-.5-2.8-.8-5.7-.9-8.6 0-2.6 1.9-8.5 1.9-8.5h3.5c3 0 5.4 3.8 5.4 8.5z"/><path d="M49 80.5c0 4.7-2.4 8.5-5.4 8.5s-5.4-3.8-5.4-8.5 2.3 0 10.8 0z" opacity=".1"/><ellipse cx="39.9" cy="80.5" rx="5.4" ry="8.5"/><ellipse cx="39.9" cy="80.5" rx="5.4" ry="8.5" fill="#010101" opacity=".4"/><path d="M44 89l15 17 17 5 1-2-16-5-15-17s-3-1-2 2z"/><path d="M44 89l15 17 17 5 1-2-17-4-15.8-18c-.4.3-.6.9-.2 2z" fill="#010101" opacity=".1"/><path d="M74.4 106.4l12.5 3.4c1.3.4 2.1 1.7 1.8 3.1-.4 1.3-1.7 2.1-3.1 1.8l-12.5-3.4c-1.3-.4-2.1-1.7-1.8-3.1.4-1.4 1.8-2.2 3.1-1.8z" fill="#231100"/></svg>