<svg xmlns="http://www.w3.org/2000/svg"><path d="M29.958 70.973s6.103-5.042 10.083 2.034c3.98 7.076-.973 12.118-.973 12.118s11.057 15.302 19.106 16.187c0 0 3.361-4.865 10.26-1.504 6.9 3.361 3.804 9.464 3.804 9.464s-2.035 4.07-9.022 4.07c-6.988 0-24.148-13.092-30.163-25.121-6.014-12.03-4.068-15.214-3.095-17.248z" stroke-width=".885"/><path d="M29.958 70.973s6.103-5.042 10.083 2.034c3.98 7.076-.973 12.118-.973 12.118s11.057 15.302 19.106 16.187c0 0 3.361-4.865 10.26-1.504 6.9 3.361 3.804 9.464 3.804 9.464-4.334-7.518-7.873-6.633-15.214-6.191-12.118-3.184-21.582-14.418-20.079-16.806 0 .088 5.307-14.595-6.987-15.302z" opacity=".18" fill="#010101" stroke-width=".885"/><path d="M26.7 55.6c-4.2 2.2-8.8 8.3-9.7 13" fill="none" stroke="#fff" stroke-width="2" stroke-linecap="round" stroke-linejoin="round"/><path d="M30 59.2c-3.4 1.8-7.2 6.8-7.9 10.7" opacity=".6" fill="none" stroke="#fff" stroke-width="2" stroke-linecap="round" stroke-linejoin="round"/></svg>