<svg xmlns="http://www.w3.org/2000/svg"><path d="M34.5 116.9L32.9 104l2-.4 1.5 13s-.4 2-1.9.3z" fill="#303030"/><path d="M46.8 71.7c1.6 2.3 2 5.1 1.2 7.7l-.4 2 4.3.1c3 .9 3.2 8 .6 10.2-1.1.6-2.1 1.4-3 2.2-.9 1.2-5.2 5.2-8.4 6.3-.6.2-1.8.8-3.3 1.4-6 2.4-17.4 5.9-19.3-6.5l.3-6.6c.2-3.3-1.5-5.7.8-12s8.8-7.3 13.6-6c0 0 .8.5 2.4-1.7s8.3-3.3 11.2 2.9z" fill="#d8d8d8"/><path d="M39.1 101.1c-5.6 2.4-18.4 7.2-20.4-6.1l.4-6.7c.2-3.3-1.5-5.7.8-12s2.4-6.4 13.6-6c10.3.3 5.3 16.3 7.2 27.1 0 1.1-.7 3.3-1.6 3.7z" fill="#fff"/><path d="M41.2 100.2c3.2-.7-20.2 10.3-22.5-5.2l.3-6.6c.2-3.3-1.5-5.7.8-12s8.8-7.3 13.6-6c-14.8.9-8.4 31.9 7.8 29.8z" opacity=".05"/><path d="M52.6 91.9s-8.3 7.2-11.4 8.4c-2.7 1-16.2 8.1-21-.5-.6-1.5-1.2-3.1-1.5-4.7.9 2.2 5.7 4.2 10.6 4.3 6.6.3 11.2-4.3 15.3-3.6 2.5-1.6 5.2-2.9 8-3.9z" opacity=".16"/><path d="M33.094 54.745l8.535.29-5.352 6.547 2.17 8.147-7.812-3.2-6.944 4.8.434-8.438-6.654-5.237 8.246-2.182 2.893-8z"/><path d="M30.346 54.308l1.302 2.037c.144.291.578.436.867.436l2.315.146c.579 0 1.013.582 1.013 1.164 0 .29-.145.436-.29.727l-1.446 1.891c-.29.291-.29.582-.29 1.019l.579 2.327c.145.582-.145 1.164-.723 1.31h-.724l-2.17-.873c-.289-.146-.723-.146-1.012.145l-2.025 1.31c-.434.29-1.157.145-1.591-.292-.145-.145-.145-.436-.145-.727l.145-2.328c0-.436-.145-.727-.434-1.018l-1.88-1.455c-.435-.29-.58-1.018-.29-1.6.144-.145.434-.29.578-.436l2.315-.582c.29-.146.579-.291.723-.728l.868-2.182c.145-.582.868-.872 1.447-.727.434 0 .723.145.868.436z" opacity=".5" fill="#fff" stroke-width="1.451"/></svg>