<svg xmlns="http://www.w3.org/2000/svg"><path d="M139.5 61.5l-7.4 13.3-12.8 7.7s-.6 4.6-1 5.9c-1.1 4 20.1 2.3 22.3-1.7l-2.8-4.7 11.2-9.6c1.4-2.5.9-3.7-1.9-3.4l-10.9 8.1 6.8-13.4c.6-2.8-2-3.3-3.5-2.2z" fill="url(#side_15a)"/><path d="M139.5 61.5l-7.4 13.3-12.8 7.7s-.6 4.6-1 5.9c-1.1 4 20.1 2.3 22.3-1.7l-2.8-4.7 11.2-9.6c1.4-2.5.9-3.7-1.9-3.4l-10.9 8.1 6.8-13.4c.6-2.8-2-3.3-3.5-2.2z" fill="currentColor"/><path d="M119.4 82.4l6.3-9.8c.8-.9 1.8-1 3.1-.4 0 0 3.3 2.4 1.8 1.4s6.4 5.1 6.4 5.1-.6 2.8-4.4 2L129 80s.6 3.1-3.4 3.7-6.2-1.3-6.2-1.3z" fill="currentColor"/><path d="M119.4 82.4l6.3-9.8c.8-.9 1.8-1 3.1-.4 0 0 3.3 2.4 1.8 1.4s6.4 5.1 6.4 5.1-.6 2.8-4.4 2L129 80s.6 3.1-3.4 3.7-6.2-1.3-6.2-1.3z" fill="#010101" opacity=".1"/><path d="M25.8 63.7L34 77.3l14.6 7.6s.6 4.8 1 6.1c1.2 4.1-21.6 3-24-1l1.6-5.1-12.7-9.6c-1.6-2.5-.9-3.8 2.3-3.5l12.4 8.1-7.5-13.7c-.6-3 2.3-3.6 4.1-2.5z" fill="currentColor"/><path d="M48.4 84.8l-7.1-9.9c-.9-.9-2.1-1-3.6-.3 0 0-3.9 2.6-2.1 1.5S28 81.6 28 81.6s.6 2.9 5 2l4.4-.9s-.8 3.2 3.8 3.8 7.2-1.7 7.2-1.7z" fill="url(#side_15b)"/><path d="M48.4 84.8l-7.1-9.9c-.9-.9-2.1-1-3.6-.3 0 0-3.9 2.6-2.1 1.5S28 81.6 28 81.6s.6 2.9 5 2l4.4-.9s-.8 3.2 3.8 3.8 7.2-1.7 7.2-1.7z" fill="currentColor"/><path d="M48.4 84.8l-7.1-9.9c-.9-.9-2.1-1-3.6-.3 0 0-3.9 2.6-2.1 1.5S28 81.6 28 81.6s.6 2.9 5 2l4.4-.9s-.8 3.2 3.8 3.8 7.2-1.7 7.2-1.7z" fill="#010101" opacity=".1"/><path d="M48.4 84.8l-7.1-9.9c-.9-.9-2.1-1-3.6-.3 0 0-3.9 2.6-2.1 1.5S28 81.6 28 81.6c2.3-1.3 13.5-7.2 20.4 3.2z" fill="#010101" opacity=".1"/><path d="M22 64.1c1.3 0 2.5.8 3 1.9 1 2 6.9 12.9 6.9 12.9l2.1-1.6L26 64c-1.1-1.1-2.9-1.1-4 .1 0-.1 0 0 0 0zM149.047 69.108c.2 1.3-1.247 1.992-2.247 2.692C145 73.1 136 80 136 80l1.9 1.8 11.1-9.4c.63-1.052 1.347-2.392.048-3.292zM141.26 60.938s.54.862-.66 2.762c-1.2 1.9-7.2 11.7-7.2 11.7l2.5 1.9 6.91-13.33c.1.2 1.087-2.693-1.55-3.032zM13.725 72.87c1.063-.45 2.001.252 3.02 1.132 1.727 1.365 10.757 7.684 10.757 7.684l2.273-1.346L16.8 71.8c-1.302-.15-2.794-.001-3.075 1.07zM139.5 84.9S125 91 118 88l.4 1.1s3.3 2.5 12.5 1.2c0 0 8.1-1.3 9.1-3.3l-.5-2.1zM26.254 88.228s16.36 6.034 23.184 2.654c0 0 .383.92-.148 1.184-3.163 1.572-6.003 1.813-13.883 1.14 0 0-7.98-.725-9.807-3.206z" fill="#010101" opacity=".1"/></svg>