<svg xmlns="http://www.w3.org/2000/svg" id="Layer_1"><path d="M124.6 80.7s20 .3 18.6-12.5c0 0 9.6 11.1 1 20.9s-27.3 6.1-27.3 6.1l7.7-14.5z" id="path6" fill="#fff"/><path d="M143.2 68.2c.3 13.7-20.2 12.1-20.2 12.1l-1.2 5.7-4.9 9.2s18.7 3.6 27.3-6.1-1-20.9-1-20.9z" id="path8" fill="#fff"/><g id="g14" opacity=".3"><path id="polygon10" opacity=".3" d="M143.2 68.2z"/><path d="M143.2 68.2c8.4 22.4-21.7 19.4-21.7 19.4l.3-1.7-4.9 9.2s18.7 3.6 27.3-6.1-1-20.8-1-20.8z" id="path12" opacity=".3"/></g><path d="M118.5 75s7.1 1 7.3 11.2-11 11.8-11 11.8c3.5-7.1 4.8-15.1 3.7-23z" id="path16"/><path d="M38.2 78.1l9.6-4s8.6.9 9.5 11.4-5.5 12.9-5.5 12.9l-10.3.2s-4.5-3.1-5.2-11.3 1.9-9.2 1.9-9.2z" id="path18"/><path d="M38.2 78.1l9.6-4c5 1.5 9 4.3 9.5 11.4-.8-1.6-2.3-2.3-4.5-2.2L48 84.4l-5.7 1.4-5.9 1.4c.4-5-.1-7.3 1.8-9.1z" id="path20" opacity=".1" fill="#fff"/><ellipse transform="matrix(.9968 -.07975 .07975 .9968 -6.897 3.628)" cx="42" cy="88.2" rx="4.9" ry="9.1" id="ellipse22" opacity=".16" fill="#fff"/><path d="M41.7 80.6s-15.6 2.1-20-2.9-.2-13.9-.2-13.9-11.1 6.4-10 19 25 13.8 30.3 12.4c0 0 3.6-1.8 3.3-7.5 0-5.8-3.4-7.1-3.4-7.1z" id="path24" fill="#fff"/><path d="M41.7 80.6s-15.6 2.1-20-2.9-.2-13.9-.2-13.9-11.1 6.4-10 19 25 13.8 30.3 12.4c0 0 3.6-1.8 3.3-7.5 0-5.8-3.4-7.1-3.4-7.1z" id="path26" opacity=".3" fill="#fff"/><path d="M45 87.7c-15.9 3.8-39.8-2.6-23.5-23.8 0 0-11.1 6.4-10 19s25 13.8 30.3 12.4c0 0 3.6-1.8 3.2-7.6z" id="path30" opacity=".3"/></svg>