<svg xmlns="http://www.w3.org/2000/svg"><path d="M42 66.5c-2.1-4-6.6-6.2-11-5.5-8 1-10 4-12 9s7 17 7 17l6 6c1 1 0 7 4 9s13 0 13-4-4-5-5-18l1-9-3-4.5z" fill="currentColor"/><path d="M42 66.5c-2.1-4-6.6-6.2-11-5.5 13 4 14 32 13 19l1-9-3-4.5z" opacity=".1"/><path d="M31 61c-8 1-10 4-12 9s7 17 7 17l6 6c1 1 0 7 4 9 1.822 1.022 6.628 1.126 10.197-.632 3.667-1.807 3.024-3.84 2.098-6.276.96 4.698-12.509 8.278-13.633.594C33.796 89.77 22 80.186 22 73c0-8 4.9-8.9 9-12z" fill="#010101" opacity=".1"/><path d="M44 74c-1-2-6-7-12-4s-3 10 1 14c2.3 2.3 4.8 4.5 7.4 6.5L44 92s3-1 0-5c-2.1-2.9-.9-5.8.1-7.6.3-.5.6-1 .8-1.5.1-.9.1-1.9-.9-3.9z"/><path d="M44 74c-1.496-2.411-6.15-6.835-12-4-6.037 2.926-3 10 1 14 2.3 2.3 4.8 4.5 7.4 6.5L44 92c-13-7.2-19.2-27.2 0-18z" fill="#010101" opacity=".2"/><path d="M39 75c-2 0-4 3-2 6s6 3 6 3-1-.9.5-3.5S41 75 39 75z" fill="#010101" opacity=".5"/><path d="M114 61.1s14.3-7.4 19.7-1c5.4 6.4-5.522 18.132-5.522 24.532 0 6.4.524 9.234-5.278 12.068-7.117 3.476-6.8-.7-6.8-.7-1.1 0 6.6-19-2.1-34.9z" fill="currentColor"/><path d="M118.576 59.227s9.92-1.477 11.61 4.366c1.933 6.678-3.83 11.678-4.83 16.678S125 87 124 92c-.4 2.8-2.427 4.973-5.127 5.873 0 0 9.751-1.082 9.332-9.597-.38-7.726 1.893-10.16 3.745-13.856 1.795-3.582 4.946-8.886 2.092-13.87-2.688-4.693-11.973-2.604-15.466-1.323z" fill="#010101" opacity=".1"/><path d="M117.921 69.708c.616-1.919 3.696-6.715 7.391-3.837 3.696 2.878 1.848 9.592-.616 13.43-1.416 2.206-3.191 5.053-4.557 6.203-.732.616-2.546 1.322-2.546 1.322s.333-1.5.514-4.625c.153-2.651.155-5.158-.054-7.315-.05-.505-.205-1.866-.328-2.346-.142-1.365-.35-1.593.196-2.832z" stroke-width=".769"/><path d="M117.921 69.708c.108-.494 3.405-7.098 7.391-3.837 3.612 2.954 1.848 9.592-.616 13.43-1.416 2.206-3.253 5.087-4.557 6.235-.715.628-2.546 1.29-2.546 1.29 8.219-6.695 12.154-25.943.328-17.118z" opacity=".2" fill="#010101"/><path d="M121 70.667c1.233 0 2.464 2.878 1.233 5.756-1.232 2.877-3.991 2.907-3.991 2.907s-.027-1.953-.108-3.607c-.37-2.64 1.635-5.056 2.867-5.056z" opacity=".5" fill="#010101"/></svg>