<svg xmlns="http://www.w3.org/2000/svg"><path d="M40.46 73.93a6.81 6.81 0 0 1-5.46-3C32 66.08 19 60 14 60s3 8.51 3 8.51 0 1.21 2 2.43c2 1.22 4 1.22 2 1.22s-3 0-2 2.43 4 2.41 4 8.51-10 13.37-8 14.58c2 1.21 7-1.21 11-4.86 4-3.65 8-13.37 14-12.15 5-.67 3.3-6.48.46-6.74z" fill="currentColor"/><path d="M28 84.1C25 91 13 96.47 15 97.68c2 1.21 7-1.21 11-4.86 4-3.65 8-13.37 14-12.15 3.34-.45 3.69-3.19 2.71-5a2 2 0 0 0-1.87-1.07C43 79 30 78 28 84.1z" opacity=".1" fill="#010101"/><path d="M22 66s5 0 10 5 2 6 2 6-7 2-8 7 3-14-4-18z"/><path d="M53.36 81.57s19.2 4.68 15.58 6.19-20.66 6.53-29.12 1.57-1.23 2.67 13.54-7.76z" fill="currentColor"/><path d="M53.62 81.5l11.89 3.36c-7.42 2.23-16 3-25.34 2.9 0 0 7.91-2.35 13.45-6.26z"/><path d="M119.39 80.38c-.48 4.17-1.11 8-2.32 10.45 0 0 16.66-3.87 20.81-8.46 7.12-7.83 2.58 2-18.49-1.99z" fill="currentColor"/><path class="cls-5" d="M119.07 80.42l-.8 6s12.17-3.12 18.51-5.41c0-.01-9.78.9-17.71-.59z"/><path d="M65.6 85.13s4.7 2.06 3.34 2.63c-3.62 1.52-20.66 6.53-29.12 1.57-1.52-.89-3.09-1.63-3.09-1.63 7.38 4.13 33.07-1.51 28.87-2.57z" fill="#010101" opacity=".1"/></svg>