<svg xmlns="http://www.w3.org/2000/svg"><path d="M42.8 68.7c1.6 2.3 2 5.1 1.2 7.7l-.4 2 4.3.1c3 .9 3.2 8 .6 10.2-1.1.6-2.1 1.4-3 2.2-.9 1.2-5.2 5.2-8.4 6.3-.6.2-1.8.8-3.3 1.4-6 2.4-17.4 5.9-19.3-6.5l.3-6.6c.2-3.3-1.5-5.7.8-12s8.8-7.3 13.6-6c0 0 .8.5 2.4-1.7s8.3-3.3 11.2 2.9z" fill="#d8d8d8"/><path d="M48.6 88.9s-8.3 7.2-11.4 8.4c-2.7 1-16.2 8.1-21-.5-.6-1.5-1.2-3.1-1.5-4.7.9 2.2 5.7 4.2 10.6 4.3 6.6.3 11.2-4.3 15.3-3.6 2.5-1.6 5.2-2.9 8-3.9z" fill="#010101" opacity=".16"/><path fill="none" stroke="#000" stroke-width=".5" stroke-linecap="round" stroke-linejoin="round" d="M41 22l-16 9M49 57L27 70M46 27L19 42M48 34L16 52M41 71L28.5 27M45 65L32 20M35 72L24 34"/><path fill="none" stroke="#000" stroke-width=".5" stroke-miterlimit="10" d="M49 58L37 17"/><path fill="none" stroke="#000" stroke-width=".5" stroke-linecap="round" stroke-linejoin="round" d="M28 68l-8-28M50 41L18 59M53 47L21 65"/><path d="M37 103.5l.5 7s.7 2.2-1.1 2.6 6.1.4 5.1-2.6c0-1.1-.9-2-2-2l-.4-4.8-2.1-.2z" opacity=".1"/><path d="M52.5 35.5c-1.7-9.2-9.7-17.8-17.9-19.4C33 15.8 20 41 12.3 53.5c1.3 4.3 4 8.2 9.2 15 9 14 11 15 12 28 .8 10.4 1 11.8 1 12 0 0-1 0-1 2s2 3 4 3 4-1 4-3c0-1.1-.9-2-2-2l-1-12s-.6-20.2 8-31c8.5-10.6 8-19 6-30zm-18 48l-5-11s3 4 9 0l-4 11zm-.1-15c-8.9.7-17.1-8.5-18.9-20.9C22 36 30 23 31.7 19.5c8.9.3 16.6 10.3 17.7 23.1 1.2 13.5-5.6 25.1-15 25.9z"/><path d="M34.076 16.433c3.1.2 5.724 2.467 7.924 4.567 6 6 8 10 9 21s-3.5 20.5-7.5 24.5-14 6-14 6c1.5.9 3.3 1.2 5 1 1.4-.3 2.8-.8 4.1-1.4l2.9 2.4c1.6-3.5 3.5-6.9 5.8-10 3.2-4 6.682-10.456 6.4-19.4-.283-8.999-2.918-24.642-19.195-28.995z" fill="#010101" opacity=".1"/><path d="M35.1 98.1c-5.6 2.4-18.4 7.2-20.4-6.1l.4-6.7c.2-3.3-1.5-5.7.8-12s2.4-6.4 13.6-6c10.3.3 5.3 16.3 7.2 27.1 0 1.1-.7 3.3-1.6 3.7z" fill="#fff"/><path d="M37.2 97.2c3.2-.7-20.2 10.3-22.5-5.2l.3-6.6c.2-3.3-1.5-5.7.8-12s8.8-7.3 13.6-6c-14.8.9-8.4 31.9 7.8 29.8z" opacity=".05"/></svg>