<svg xmlns="http://www.w3.org/2000/svg"><path d="M46.7 67.2s-8.4.6-9.9 7.7c0 0-8.5.1-12.1 6.4L16 84.9l.2 3 17.4 18.8 1.4 4.9s4.2 4.9 9.3 5.6l6.7-6.7s-.4-5-2.4-5.8-7.3-3.5-8.3-3.4-6-12.6-6-12.6 12 6.7 16.6-6.2c0-.1 8.8-14.8-4.2-15.3zM117.1 67l.5.2c3.3.9 5.8 3.5 6.7 6.8 0 0 8.5-.1 12.2 6l8.9 3.4-.1 3-16.9 19.3-1.2 5s-1.1 3-6.2 3.7l-9.8-4.4s.2-5 2.3-5.9 7.2-3.7 8.2-3.6 5.6-12.8 5.6-12.8-4.4 2.6-9 1.7C120 78 118 74 117.1 67z" fill="currentColor"/><path d="M37.704 96.004c.839 2.01 1.531 3.233 2.258 4.64-4.81.869-6.114 2.866-6.907 5.848l-4.11-4.334c1.366-4.37 4.014-5.726 8.759-6.154zM133.1 101.042c-1.586 1.49-2.489 2.568-3.552 3.743-2.501-4.2-4.83-4.719-7.9-4.414l2.616-5.37c4.571-.255 6.77 1.748 8.836 6.04z" stroke-width="2" stroke-linecap="round" stroke-linejoin="round"/><path d="M46.7 67.2c6.34 2.94 5.124 14.53-2.076 13.03-.4 2.9-1.5 7.1-9.8 6-3.1.8-5.7 1.2-5.7 1.2l9.1 14.8c5.9 1.6 10.476 4.27 12.776 8.27 0 0-.4-5-2.4-5.8-2-.8-7.472-3.445-8.476-3.47-1.021-.387-5.9-12.6-5.9-12.6S46.208 95.469 50.9 82.5c-.1-.2 8.842-14.7-4.2-15.3z" opacity=".1" fill="#010101"/><path d="M117.42 69.38s4.75 2.79 5.75 6.79c0 0 7 1 9 6l3 1-11 19-8 5c-1.2 1-2.2 2.3-2.9 3.8l-2.07-.97s.1-5.775 3.17-6.23c2.6-1.3 6.488-3.35 7.59-3.36 2.218-4.018 3.736-8.386 5.34-12.71-3.45 1.78-6.22 2.17-9 1.7 1.19-7.128.76-13.15-.88-20.02z" opacity=".15" fill="#010101"/></svg>