<svg xmlns="http://www.w3.org/2000/svg"><path d="M130.75 63c-2.29-1.943-15.61-.48-15.61-.48l.86 1.88 2.34 4.88a37.9 37.9 0 0 1 7.79-2.41C126.14 67 128 86 126 88s-8.41 3.25-8.41 3.25L117 93l-1 2.61S133 97 133 85c.659-16.305.598-19.582-2.25-22zM24.6 67.9s-4.65.28-6.5 1.27c-.48.25-.39 1.1.2 1.53a24.3 24.3 0 0 1 8.07 11c3.29 8.48 3.34 16.72 13.72 20.42 10.38 3.7 14.76 0 14.76 0S62 93 54 84.21c0 0-1.61-1.56-4.65-.58-3.625 1.17-7.52 1.86-11.67-5.69C33.53 70.39 31.47 67 24.6 67.9z" fill="currentColor"/><path d="M19.806 71.975c4.658 4.104 5.887 7.922 6.564 9.725 3.29 8.48 3.34 16.72 13.72 20.42 10.38 3.7 14.76 0 14.76 0s5.348-5.979 1.752-13.96c0 0 3.9 10.982-7.886 10.859-5.465-.057-10.5-.781-14.53-5.934-5.308-6.787-7.81-18.894-14.38-21.11z" opacity=".2" fill="#2b2b2b"/><ellipse cx="24.71" cy="69.62" rx="6.45" ry="1.73" transform="rotate(-3.52 24.734 69.656)" opacity=".35" fill="#fff"/><ellipse cx="24.94" cy="69.61" rx="4.84" ry=".87" transform="rotate(-3.52 24.897 69.66)" fill="#010101" opacity=".35"/><path d="M29.76 69.31c.52.84-4.77 1.17-4.77 1.17.38-1.08.33-1.65-.11-1.73 0 0 4.37-.27 4.88.56z" fill="#010101" opacity=".35"/><path d="M126.13 66.87S128 86 126 88s-8.41 3.25-8.41 3.25L117 93s8.84-1.21 10.92-4.1S129 71 129 71s.25-5.27-2.87-4.13z" fill="#010101" opacity=".5"/><path d="M115.14 62.52s14.524-1.745 16.082.93c-2.288-.727-6.051-.355-8.822-.03l-6.421.93z" opacity=".4" fill="#fff"/><path d="M45.394 85.04c5.25 1.025 9.04.085 10.512 1.716-.517-.846-.9-1.397-1.906-2.546-.1-.115-1.922-1.594-4.65-.58-10.805 4.015-11.5-9.574-17.592-14.131 6.157 7.137 5.787 14.008 13.636 15.54z" opacity=".3" fill="#fff"/></svg>