<svg xmlns="http://www.w3.org/2000/svg" id="Layer_1"><path d="M63.3 76.1s.8 14.1-17.6 21.1-27.8-5.5-27.8-5.5-.5-15 18.4-21 27 5.4 27 5.4z" id="path6" fill="#dd8313"/><path d="M63.3 76.1s.8 14.1-17.6 21.1-27.8-5.5-27.8-5.5c20.9 2.1 34.4-3.8 45.4-15.6z" id="path8" opacity=".5" fill="#754c24"/><path d="M46.807 77.563a.66.66 0 0 0-.207.037l-.4.1c-.2.1-.3.4-.3.6l1.34 3.665-5.035 1.873-1.904-5.139c-.1-.3-.302-.399-.602-.299l-.398.1c-.2.1-.401.4-.301.7l1.938 5.109-5.694 2.117L34.1 83.3c-.1-.3-.3-.401-.6-.301l-.4.1c-.3.1-.4.4-.3.6l1.17 3.2-4.57 1.7c-.3.1-.4.3-.3.6l.1.4c.1.2.4.3.6.3l4.637-1.724 1.364 3.724c.1.3.3.4.6.3l.4-.1c.3-.1.399-.3.299-.6l-1.39-3.797 5.71-2.123 1.98 5.22c.1.3.3.4.6.3l.3-.2c.3-.1.4-.3.3-.6l-1.922-5.189 5.029-1.87L48.9 86.5c.1.3.3.4.6.3l.4-.1c.3-.1.4-.3.3-.6l-1.22-3.332L54 80.9c.3-.1.4-.3.3-.6l-.1-.4c-.1-.3-.3-.4-.6-.3l-5.086 1.892-1.315-3.592c-.075-.225-.205-.338-.392-.338z" id="path10"/></svg>