<svg xmlns="http://www.w3.org/2000/svg"><path d="M74.4 83c13.5 2 26.4 2.5 38.2 0 0 0-1.1 23-19.4 23-4.9.2-9.6-2-12.8-5.7-5.7-6.8-6-17.3-6-17.3z" fill="#010101" opacity=".6"/><path d="M107.4 98.4c-3.2 4.7-8.5 7.4-14.2 7.3-4.9.2-9.6-2-12.8-5.7-5.7-6.9 31.8-8.4 27-1.6z" fill="#f15a24"/><path d="M93.4 67.8c-.2-.4-.6-.6-1-.6l-7.9.2-4.8-6.9c-.4-.5-1-.6-1.5-.2-.2.1-.3.3-.4.5l-2.1 8.1-7.5 2.5c-.4.1-.7.5-.7.9-.1.4.1.8.5 1.1l6.6 4.8.1 8.4c0 .4.2.8.6 1 .4.2.8.1 1.1-.1l6.2-5.1 7.6 2.7h.5c.2 0 .4-.2.6-.3.3-.3.4-.8.2-1.2l-2.8-8c.1.1 4.9-7.4 4.7-7.8z" opacity=".2"/><path d="M92.3 68.6c-.2-.3-.5-.5-.9-.5l-7.1.2-4.2-5.9c-.4-.4-1-.5-1.4-.1-.1.1-.2.3-.3.4l-2 7-6.8 2.3c-.3.1-.6.4-.7.8 0 .4.1.7.4.9l5.9 4.1V85c0 .4.2.7.6.9.3.1.7.1 1-.1l5.7-4.4 6.8 2.2c.4.1.7 0 1-.2.2-.3.3-.7.2-1l-2.4-6.9s4.4-6.6 4.2-6.9z" fill="#f3ff00"/><path d="M84 68.3l-4-5.9c-.3-.4-.9-.5-1.3-.2-.2.1-.3.3-.3.5l3.7 6.3 1.9-.7z" opacity=".1"/><path d="M81.6 79.2l-5.2 4.9c-.3.4-.3.9 0 1.3.1.1.3.2.5.2l5.6-4.7-.9-1.7z" opacity=".05"/><path d="M90.7 68.8l-4.4 5.8.1.2-.1 1.1 2.4 6.7c.2.5.7.7 1.2.5.2-.1.3-.2.4-.4l-2-7.1h-.4l3.7-5.6c.2-.4.1-1-.4-1.2h-.5z" opacity=".1"/><path opacity=".2" fill="url(#face_19a)" d="M79 62l-1.2 8.8L69 72l7.5-2.5z"/><path opacity=".2" fill="url(#face_19b)" d="M68.9 72.7l7.9 4-1.7 8.6.1-7.9z"/><path d="M121.5 71.9c-.1-.4-.4-.7-.8-.8l-7.6-1.9-2.7-7.4c-.2-.5-.9-.8-1.4-.5-.2.1-.3.2-.4.4l-4.2 6.7-7.8.4c-.4 0-.8.3-.9.6-.2.4-.1.8.2 1.1l5 6.1-2.1 7.7c-.1.4 0 .8.3 1.1.3.3.7.4 1.1.2l7.3-3L114 87c.1.1.3.2.5.2s.4 0 .6-.1c.3-.2.5-.6.5-1l-.5-7.9c-.1-.3 6.5-5.9 6.4-6.3z" opacity=".2"/><path d="M118.9 72.4c-.1-.3-.3-.6-.6-.7l-6.2-1.6-2.2-6.1c-.2-.5-.7-.7-1.2-.5-.1.1-.3.2-.4.3l-3.4 5.5-6.4.3c-.5 0-.9.4-.8.9 0 .2.1.4.2.5l4.1 5-1.7 6.3c-.1.3 0 .7.3.9.2.2.6.3.9.2l6-2.4 5.3 3.6c.1.1.3.1.4.1.2 0 .4 0 .5-.1.3-.2.5-.5.4-.8l-.4-6.5c-.1 0 5.3-4.6 5.2-4.9z" fill="#f3ff00"/><path d="M111.8 70.1l-2.1-6.1c-.2-.4-.6-.6-1-.5-.2.1-.3.2-.4.3l1.7 6.4 1.8-.1z" opacity=".1"/><path d="M107 78.9l-5.7 3c-.4.2-.5.7-.3 1.1.1.2.2.3.4.3l6-2.7-.4-1.7z" opacity=".05"/><path d="M117.4 72.1l-5.3 4v.2l-.4.9.4 6.4c0 .4.4.8.9.7.2 0 .3-.1.5-.2v-6.6l-.3-.1 4.6-4c.3-.3.3-.8 0-1.1-.1-.1-.2-.1-.4-.2z" opacity=".1"/><path opacity=".2" fill="url(#face_19c)" d="M109 63.4l-3.2 7.3-7.9-1.1 7.1-.3z"/><path opacity=".2" fill="url(#face_19d)" d="M97.6 70.2l5.8 5.4-3.5 7.1 2-6.9z"/></svg>