<svg xmlns="http://www.w3.org/2000/svg" xmlns:xlink="http://www.w3.org/1999/xlink" id="Layer_1"><defs id="defs49"><clipPath id="clip-path"/><clipPath id="clip-path-2"/><clipPath id="clip-path-3"/><clipPath id="clip-path-4"/></defs><path d="M77 75s0-12 6-12 6 11.59 6 11.59S84 63 77 75z" id="path59" fill="#010101" opacity=".6"/><path d="M101 74.5s0-11 5.5-11 5.5 10.62 5.5 10.62-4.58-10.62-11 .38z" id="path61" fill="#010101" opacity=".6"/><path d="M106.7 100.09a15.08 15.08 0 0 1-11.14 5h-.43a15.08 15.08 0 0 1-11.14-5c-3-3.33-4.9-8.6-4.9-11s4.46 1.42 16 1.42h.46c7.89 0 12.78-2.53 13.65-3s2.39-.65 2.39 1.6-1.85 7.65-4.89 10.98z" id="path63" fill="#010101" opacity=".6" fill-rule="evenodd"/><circle cx="99.02" cy="79.75" r="8.98" id="circle73"/><g id="g77" fill="#010101" opacity=".2"><path d="M107.93 80.8A9 9 0 0 1 92 85.37c2.28.81 8 1.64 11.64-1.9 2.68-2.54 2.77-7.29 2.1-9.66a9 9 0 0 1 2.19 6.99z" id="path75"/></g></svg>