<svg xmlns="http://www.w3.org/2000/svg"><path d="M85.2 94h21.2s-.6 11-10.8 11c-2.6.1-5.2-.9-7.1-2.7-3.2-3.3-3.3-8.3-3.3-8.3z" fill="#603813"/><path d="M103.5 101.3c-1.9 2.3-4.9 3.6-7.9 3.5-2.6.1-5.2-.9-7.1-2.7-3.2-3.3 17.7-4 15-.8z" fill="#f15a24"/><path d="M82.2 82.4s-10-4.9-8.5-11.4 10.1-.7 9.5-.9 6.2-5.4 8.5.8c1.7 6.1-7.9 12.5-9.5 11.5z"/><path d="M82.2 82.4s-10-4.9-8.5-11.4 10-.6 9.5-.9c-7.2-4-7.5 8.6-1 12.3z" fill="#010101" opacity=".1"/><path d="M107.014 82.4s-8.53-4.9-7.251-11.4c1.28-6.5 8.616-.7 8.104-.9-.512-.2 5.289-5.4 7.25.8 1.45 6.1-6.738 12.5-8.103 11.5z" stroke-width=".924"/><path d="M106.928 82.4s-8.53-4.9-7.25-11.4c1.279-6.5 8.53-.6 8.103-.9-6.142-4-6.397 8.6-.853 12.3z" opacity=".1" stroke-width=".924" fill="#010101"/></svg>