<svg xmlns="http://www.w3.org/2000/svg" id="Layer_1"><path d="M97.6 82.4c4.8.2 8.5 4.3 8.3 9.1l-.1 3.3c-.2 4.8-4.3 8.5-9.1 8.3H96c-4.4-.2-7.8-3.9-7.6-8.4l.2-4c.2-4.9 4.3-8.6 9-8.3z" id="path6" fill="#010101" opacity=".6"/><path id="line10" d="M92.607 62.975a1 1 0 0 0-.882.511l-9.647 16.662a1 1 0 1 0 1.73 1.002l9.647-16.662a1 1 0 0 0-.848-1.513zm-11.027.441a1 1 0 0 0-.762 1.596l11.4 15.785a1 1 0 1 0 1.622-1.172L82.44 63.84a1 1 0 0 0-.86-.424z"/><path id="line14" d="M112.21 63.678a1 1 0 0 0-.81.463l-10.088 15.345a1 1 0 1 0 1.672 1.098l10.088-15.346a1 1 0 0 0-.861-1.56zm-9.5-.88a1 1 0 0 0-.927 1.45l8.254 17.014a1 1 0 1 0 1.799-.873l-8.252-17.014a1 1 0 0 0-.873-.576z"/></svg>