<svg xmlns="http://www.w3.org/2000/svg" id="Layer_1"><path d="M84 63c-2-1-5-2-9 3s-8 13-5 19 11 3 12-1 0-6 3-9 4-9-1-12z" id="path6" fill="#010101" opacity=".6"/><path d="M103.2 62.8c1.9-.9 4.7-1.9 8.4 2.8s7.4 12.1 4.7 17.7-10.3 2.7-11.2-1 0-5.6-2.8-8.4-3.7-8.3.9-11.1z" id="path8" fill="#010101" opacity=".6"/><path d="M98.002 83.113C94.309 83.054 91 84 91 84c-1.5.3-2 1-1 2 0 0 4.74 3.158 6.492 3.857a58.45 58.45 0 0 1-.166 3.678c-.111 1.371-.293 2.733-.566 3.694-.137.48-.298.782-.405 1.013-.222.485-.377.612-.377.612-.382.037-.464.027-.464.027a15.217 15.217 0 0 1-4.11-.733c-4.119-1.332-6.535-3.984-6.535-3.984a.5.5 0 1 0-.738.672s2.584 2.848 6.965 4.266c4.38 1.417 10.603 1.376 17.713-4.21.575-.404-.089-1.248-.618-.785-4.123 3.24-7.843 4.517-11.052 4.743.253-.364.43-.817.582-1.348.308-1.083.49-2.483.603-3.887.111-1.366.155-2.722.172-3.767C99.091 89.126 103 86 103 86c1-.9 1.2-1.6 0-2-1.563-.625-3.32-.86-4.998-.887z" id="path12"/></svg>