<svg xmlns="http://www.w3.org/2000/svg" xmlns:xlink="http://www.w3.org/1999/xlink" id="Layer_1"><defs id="defs59"><clipPath id="clip-path"/><clipPath id="clip-path-2"/><clipPath id="clip-path-3"/><clipPath id="clip-path-4"><path d="M540.83 1209.55s-1.83 3.45-.29 5.73c2.46 5.5 19.9-8.34 27.83.57a53.52 53.52 0 0 0 .45-8.81s-27.99 3.35-27.99 2.51z" id="path38" fill="#fff" clip-rule="evenodd"/></clipPath><clipPath id="clip-path-5"><path d="M566.92 1204.8a14.37 14.37 0 0 0-10.62-4.8H555.89a21.62 21.62 0 0 0-13.84 7.6s27.06-.24 26.65-.75-1.11-1.32-1.78-2.05z" id="path41" fill="#fff" clip-rule="evenodd"/></clipPath><clipPath id="clip-path-6"><path d="M566.92 1204.8c-1.92-2.8-7.37-4.41-7.37-4.41.45 1.61.45 5.61-.15 6.94 0 0 9.44-.28 9.27-.48-.5-.64-1.08-1.32-1.75-2.05z" id="path44" clip-rule="evenodd"/></clipPath><clipPath id="clip-path-7"/><clipPath id="clip-path-8"/><clipPath id="clip-path-9"/></defs><path id="path65" d="M83.484 57.697a1 1 0 0 0-.888 1.342s4.058 11.732 4.263 22.211a1 1 0 1 0 2-.04c-.214-10.96-4.375-22.83-4.375-22.83a1 1 0 0 0-1-.683zm-.283 2.516a1 1 0 0 0-.072.008c-1.513.214-2.643.716-3.262 1.656-.618.94-.495 2.116-.03 3.096.933 1.96 3.136 3.783 5.825 5.13 2.412 1.209 4.252 2.907 4.746 4.065.247.579.227.898 0 1.242-.225.342-.837.792-2.064 1.113-2.302.5-3.742-.05-4.567-.892-.827-.846-1.079-2.067-.709-3.174a1 1 0 1 0-1.896-.635c-.6 1.793-.187 3.817 1.176 5.21 1.362 1.391 3.634 2.064 6.447 1.445a1 1 0 0 0 .035-.008c1.521-.394 2.624-1.013 3.248-1.96.624-.945.595-2.13.17-3.126-.85-1.993-3.01-3.725-5.69-5.067-2.4-1.202-4.338-2.993-4.913-4.203-.288-.605-.26-.902-.106-1.136.152-.23.675-.592 1.842-.766 2.604-.171 3.827.548 4.484 1.219.662.675.748 1.28.748 1.28a1 1 0 1 0 1.975-.321s-.22-1.265-1.293-2.36c-1.073-1.094-3.015-2.031-6.094-1.816z"/><path id="path69" d="M102.209 57.867a1 1 0 0 0-.943 1.44s4.942 10.556 6.162 20.306a1 1 0 1 0 1.984-.248c-1.28-10.23-6.338-20.912-6.338-20.912a1 1 0 0 0-.865-.586zm-.133 2.528a1 1 0 0 0-.066.015c-1.4.347-2.427.932-2.924 1.893-.497.96-.257 2.073.281 2.953 1.077 1.76 3.32 3.248 5.973 4.24 2.358.882 4.225 2.285 4.785 3.295.28.505.289.784.121 1.11-.167.323-.676.795-1.773 1.212-2.086.689-3.46.32-4.293-.37-.838-.694-1.186-1.79-.953-2.848a1 1 0 1 0-1.954-.43c-.387 1.76.204 3.637 1.631 4.818 1.428 1.182 3.643 1.585 6.223.725a1 1 0 0 0 .035-.012c1.385-.52 2.364-1.215 2.861-2.18.498-.964.352-2.094-.148-2.996-1-1.802-3.192-3.209-5.834-4.197-2.347-.878-4.325-2.358-4.969-3.41-.322-.526-.317-.783-.209-.992.107-.206.54-.584 1.602-.856 2.404-.414 3.598.13 4.266.68.672.553.804 1.09.804 1.09a1 1 0 1 0 1.93-.53s-.338-1.178-1.463-2.105-3.055-1.614-5.926-1.105z"/><path d="M106.7 99.09a15.08 15.08 0 0 1-11.14 5h-.43a15.08 15.08 0 0 1-11.14-5c-3-3.33-4.9-8.6-4.9-11s4.46 1.42 16 1.42h.46c7.89 0 12.78-2.53 13.65-3s2.39-.65 2.39 1.6-1.85 7.65-4.89 10.98z" id="path71" fill="#010101" opacity=".6" fill-rule="evenodd"/><path d="M92.07 90.25c-.42.17-.81 10.58-.11 14.55s9.25 7.63 11.76-4c1.38-4.43.68-11.9.68-11.9s-6.82 2.23-12.33 1.35z" id="path81" fill="#f15a24"/><path d="M98.69 92.56s.67 7.17-.18 11.41.7 4.25 2.39 2.12 3.77-6.26 3.55-13.79v-3.41l-5.94 1.66z" id="path83" fill="#e84715"/></svg>