<svg xmlns="http://www.w3.org/2000/svg"><path d="M94 85s4.8-2 8.2 0c.8.4.7 1.1 0 2 0 0-3.4 4-4.1 4s-4.8-4-4.8-4c-.6-1-.3-1.7.7-2z" fill="#3a3a3a"/><path d="M99.3 84.1c1 .2 2 .4 3 .9.8.4.7 1.1 0 2-1.2 1.5-2.6 2.9-4.1 4 1.9-3.2 2.6-6.3 1.1-6.9z" opacity=".2"/><path d="M96 100c1.6.2 2-5.8 2-9M88 95.5s7.5 11 18 0" fill="none" stroke="#000" stroke-linecap="round" stroke-linejoin="round"/><path d="M79 82s0-12 6-12 6 11.6 6 11.6S86 70 79 82zM102 82s0-12 6-12 6 11.6 6 11.6-5-11.6-12 .4z" fill="#010101" opacity=".6"/><path d="M96 86s4-1 6 0h-6z" opacity=".3" fill="#fff"/><path d="M93 90c-9.9-3.8-20.4-6.2-31-7M92.6 91.3c-12-2.8-27.7-1.2-27.7-1.2M92.5 93.2c-12.3-1-27.6 5-27.6 5M101 90c8.5-3.8 17.7-6.2 27-7M101.3 91.3c10.5-2.8 24.1-1.2 24.1-1.2M101.4 93.2c10.7-1 24 5 24 5" fill="none" stroke="#000" stroke-width=".5" stroke-linecap="round" stroke-linejoin="round"/></svg>