<svg xmlns="http://www.w3.org/2000/svg" xmlns:xlink="http://www.w3.org/1999/xlink" id="Layer_1"><defs id="defs150"><defs id="defs26"><path d="M106.9 90.8c-2.7-3-6.6-4.8-10.6-4.8h-.4c-10.6 1.1-18.1 10.4-15.3 15.3 2.5 5.5 19.9-8.3 27.8.6 2.3 1.3 3.7-1 3.2-3.4-.4-2.2-1.8-4.5-4.7-7.7z" id="SVGID_2_"/></defs><clipPath id="SVGID_3_"><use id="use28" xlink:href="#SVGID_2_" overflow="visible"/></clipPath><defs id="defs60"><path d="M80.8 95.6s-1.8 3.4-.3 5.7c2.5 5.5 19.9-8.3 27.8.6.4-2.9.5-5.9.4-8.8.1-.1-27.9 3.3-27.9 2.5z" id="SVGID_8_"/></defs></defs><path d="M117.2 66S81.4 54.5 44 63.5" id="path6" fill="none" stroke="#000" stroke-width=".5" stroke-linecap="round" stroke-linejoin="round"/><path d="M101.5 63.4s.5 19.6 7 20.6c4.5 1.1 6.5-1.7 7-4.6s.4-11.4-1.8-14.3L101 62l.5 1.4z" id="path8" fill="#010101"/><ellipse transform="rotate(-3.149 85.318 72.71) scale(1.00001)" cx="85.3" cy="72.7" rx="7.7" ry="10.8" id="ellipse10" fill="#fff"/><ellipse cx="85.4" cy="74.5" rx="4.6" ry="5.5" id="ellipse12"/><circle cx="82.5" cy="71.5" r="2.5" id="circle14" fill="#fff"/><path d="M79 62.4c3.6-2.6 11.5 1.6 17 2.6 0 0-10.9-7.2-12.8-8.2S79 62.4 79 62.4z" id="path16"/><path d="M106.9 90.8c-2.7-3-6.6-4.8-10.6-4.8h-.4c-10.6 1.1-18.1 10.4-15.3 15.3 2.5 5.5 19.9-8.3 27.8.6 2.3 1.3 3.7-1 3.2-3.4-.4-2.2-1.8-4.5-4.7-7.7z" id="path23" fill="#010101" opacity=".6"/><path d="M80.8 95.6s-1.8 3.4-.3 5.7c2.5 5.5 19.9-8.3 27.8.6.4-2.9.5-5.9.4-8.8.1-.1-27.9 3.3-27.9 2.5z" id="path57" fill="#fff"/><path id="use62" d="M80.8 95.6s-1.8 3.4-.3 5.7c2.5 5.5 19.9-8.3 27.8.6.4-2.9.5-5.9.4-8.8.1-.1-27.9 3.3-27.9 2.5z" fill="#fff"/></svg>