<svg xmlns="http://www.w3.org/2000/svg" xmlns:xlink="http://www.w3.org/1999/xlink" id="Layer_1"><defs id="defs42"><clipPath id="clip-path"/><clipPath id="clip-path-2"><path d="M530.83-275.45s-1.83 3.45-.29 5.73c2.46 5.5 19.9-8.34 27.83.57a53.52 53.52 0 0 0 .45-8.81s-27.99 3.35-27.99 2.51z" id="path16" fill="#fff" clip-rule="evenodd"/></clipPath><clipPath id="clip-path-3"><path d="M556.92-280.2a14.37 14.37 0 0 0-10.62-4.8H545.89a21.62 21.62 0 0 0-13.89 7.6s27.06-.24 26.65-.75-1.06-1.32-1.73-2.05z" id="path19" fill="#fff" clip-rule="evenodd"/></clipPath><clipPath id="clip-path-4"><path d="M556.92-280.2c-1.92-2.8-7.37-4.41-7.37-4.41.45 1.61.45 5.61-.15 6.94 0 0 9.44-.28 9.27-.48-.5-.64-1.08-1.32-1.75-2.05z" id="path22" clip-rule="evenodd"/></clipPath><clipPath id="clip-path-5"/><clipPath id="clip-path-7"/></defs><path id="path29" d="M109 98.38a21.11 21.11 0 0 1-12.9 4.12h-.5a21.17 21.17 0 0 1-12.9-4.12c-3.53-2.73-5.67-7-5.67-9s7.16 1.16 20.57 1.16h-1.5c9.12 0 14.78-2.08 15.79-2.47 1.01-.39 2.76-.54 2.76 1.31s-2.14 6.27-5.65 9z" clip-rule="evenodd" fill="#010101" opacity=".6"/><ellipse cx="97.32" cy="72.71" rx="7.68" ry="10.76" transform="rotate(-3.15 97.363 72.74)" id="ellipse88" fill="#fff"/><ellipse cx="97.42" cy="74.5" rx="4.58" ry="5.5" id="ellipse90"/><circle cx="94.5" cy="71.5" r="2.5" id="circle92" fill="#fff"/><path d="M91 62c4.41-5.13 8.74-5 13 0 0 0-6-12-13 0z" id="path94"/></svg>