<svg xmlns="http://www.w3.org/2000/svg" xmlns:xlink="http://www.w3.org/1999/xlink" id="Layer_1"><defs id="defs54"><clipPath id="clip-path"/><clipPath id="clip-path-2"/><clipPath id="clip-path-3"><path d="M540.83 1022.55s-1.83 3.45-.29 5.73c2.46 5.5 19.9-8.34 27.83.57a53.52 53.52 0 0 0 .45-8.81s-27.99 3.35-27.99 2.51z" id="path22" fill="#fff" clip-rule="evenodd"/></clipPath><clipPath id="clip-path-4"><path d="M566.92 1017.8a14.37 14.37 0 0 0-10.62-4.8H555.89a21.62 21.62 0 0 0-13.84 7.6s27.06-.24 26.65-.75-1.11-1.32-1.78-2.05z" id="path25" fill="#fff" clip-rule="evenodd"/></clipPath><clipPath id="clip-path-5"><path d="M566.92 1017.8c-1.92-2.8-7.37-4.41-7.37-4.41.45 1.61.45 5.61-.15 6.94 0 0 9.44-.28 9.27-.48-.5-.64-1.08-1.32-1.75-2.05z" id="path28" clip-rule="evenodd"/></clipPath><clipPath id="clip-path-6"/><clipPath id="clip-path-7"/><clipPath id="clip-path-8"/><clipPath id="clip-path-9"/></defs><path d="M77 76s0-12 6-12 6 11.59 6 11.59S84 64 77 76z" id="path90" fill="#010101" opacity=".6"/><path d="M101 75.5s0-11 5.5-11 5.5 10.62 5.5 10.62-4.58-10.62-11 .38z" id="path92" fill="#010101" opacity=".6"/><path d="M95.33 95.09q-.77 0-1.5-.06c-.88-.06-1.28 5.36-2.55 5.67s-1.72-6.38-2.54-6.63c-2.37-.72-6.48-1.76-8.26-2.91-4-2.59-4.42-5.74-4.42-7 0-2.38 7.46 5.42 19 5.42h.46c7.89 0 12.78-2.53 13.65-3s2.39-.65 2.39 1.6c0 1.09-1.85 2.77-4.69 4.21-.73.37-.86 8.43-2.38 8.05s-1.73-6.39-2.65-6.14a24.2 24.2 0 0 1-6.51.79z" id="path94" fill="#010101" opacity=".6" fill-rule="evenodd"/><path d="M87.93 88.54l2.57 11.38s.46 1.92 1.48 0 2.5-10.4 2.5-10.4a26.66 26.66 0 0 1-6.55-.98z" id="path116" fill="#fff"/><g id="g120" opacity=".05"><path d="M91 91.51s1.19-.51 0 8.41c0 0 0 1.08 1 0 .8-1.92 2.48-10.4 2.48-10.4a19.21 19.21 0 0 1-4.36-.45z" id="path118"/></g><path d="M100.84 89.13l2.81 10.21s1.22 2.34 1.78 0 1.77-11.89 1.77-11.89-1.51.82-6.36 1.68z" id="path122" fill="#fff"/><g id="g126" opacity=".05"><path d="M103.45 90.8s1.07-.72 1.5 8.27a.87.87 0 0 0 .23.43c.16.14 1.69-11.63 1.69-11.63a48.16 48.16 0 0 1-4.72 1.68z" id="path124"/></g></svg>