<svg xmlns="http://www.w3.org/2000/svg"><path d="M72.4 70.5s-5 2.3-4.5 5.4 4.5 2.3 4.5-.4 1.4-4.5 0-5z" fill="#fff"/><path d="M72.5 71c-1.2 1.1-1.8 2.8-1.7 4.4.4 2.6 1.7 1.8 1.7-.4s1.1-3.7 0-4z" opacity=".1"/><path d="M111 66.8s3.2-.9 4.3.7-1.2 2.9-2.3 1.6-2.5-1.6-2-2.3z" fill="#fff"/><path d="M111.1 67c1 .1 1.9.6 2.5 1.4.8 1.3 0 1.5-.9.5s-1.9-1.3-1.6-1.9z" opacity=".1"/><path d="M70.5 67.2s-3.4-.1-4 1.8 1.9 2.5 2.6 1 2-2.2 1.4-2.8z" fill="#fff"/><path d="M70.5 67.5c-1 .3-1.8 1-2.1 2-.5 1.5.4 1.4 1 .2s1.6-1.7 1.1-2.2z" opacity=".1"/><path d="M109.9 101.1H75.5s1.7-19.4 18.6-19.4c4.4-.2 8.8 1.6 11.8 4.8 5.3 5.7 4 14.6 4 14.6z" fill="#010101" opacity=".6"/><circle cx="78.8" cy="67.7" r="4.8" opacity=".6" fill="#010101"/><path d="M105.3 58.5c2.9-.3 5.8 4.6 8.6 6.9 0 0-3.7-7.5-4.4-8.6s-4.2 1.7-4.2 1.7z"/><circle cx="106.1" cy="67.7" r="4.4" opacity=".6" fill="#010101"/><path d="M80.7 59.2c-2.6-1.2-7 2.3-10.4 3.6 0 0 6-5.8 7.1-6.6s3.3 3 3.3 3z"/></svg>