<svg xmlns="http://www.w3.org/2000/svg"><path d="M77 81s0-12 6-12 6 11.6 6 11.6S84 69 77 81zM101 80.5s0-11 5.5-11 5.5 10.6 5.5 10.6-4.6-10.6-11 .4z" fill="#010101" opacity=".6"/><path d="M75 85.4h38.3s-1.1 23.1-19.4 23.1c-5 .2-9.7-1.9-12.9-5.8-5.8-6.8-6-17.3-6-17.3z" fill="#603813"/><path d="M108.1 100.8c-3.2 4.7-8.5 7.5-14.2 7.3-5 .2-9.7-1.9-12.9-5.8-5.8-6.8 31.9-8.3 27.1-1.5z" fill="#f15a24"/><path d="M75 85h38.3c-.1 2.5-.5 5-1.3 7.3 0 0-22.5 4.2-35.9-.3-.6-2.3-1-4.6-1.1-7z" fill="#fff"/></svg>