<svg xmlns="http://www.w3.org/2000/svg" xmlns:xlink="http://www.w3.org/1999/xlink" id="Layer_1"><defs id="defs19"><clipPath id="clip-path"/></defs><ellipse cx="36.865" cy="126.724" rx="15.4" ry="25.64" transform="rotate(-10.13)" id="ellipse29-6"/><path d="M55.605 92.88a25.64 15.4 79.87 0 0-1.537.145 25.64 15.4 79.87 0 0-10.65 27.948 25.64 15.4 79.87 0 0 19.67 22.533 25.64 15.4 79.87 0 0 10.65-27.95 25.64 15.4 79.87 0 0-18.133-22.675zm-2.554 6.27c5.05 0 10.419 7.85 12.219 18.17 2 10.93-.71 20.55-6 21.5a4.88 4.88 0 0 1-.85.07c-5.06 0-10.42-7.8-12.27-18.15-1.95-10.93.76-20.56 6.05-21.5a4.8 4.8 0 0 1 .85-.08v-.01z" id="ellipse29" fill="#fff" opacity=".2"/><path d="M59 117.91c.33 1.84-1.54 3.72-1.54 3.72s-2.41-1.11-2.74-3 1.57-3.63 1.57-3.63 2.4 1.06 2.71 2.91z" id="path37" fill="#010101" opacity=".5"/><path d="M49.22 120.26c.78 4.19 4.69 16.41 10.05 18.55-5.29.94-11.17-7.15-13.12-18.08s.76-20.56 6.05-21.5c-4.59 2.3-3.76 16.83-2.98 21.03z" id="path39" fill="#010101" opacity=".4"/><path d="M120.69 120.83c-2.54 13.44-11.15 23.1-19.22 21.58-7.56-1.43-12-12.18-10.41-24.59C94 116 107 113 115.56 96.29c4.85 4.53 7.09 14.14 5.13 24.54z" id="path41"/><path d="M97 116.65c-.74 4-1.4 16.43 2.7 20.2-4.94-.93-7.46-9.71-5.81-19.84 0-.13 3.38-1.62 3.38-1.62s-.27.9-.27 1.26z" id="path49" fill="#010101" opacity=".4"/><path d="M115.56 96.29C107 113 94 116 91.06 117.82c-1.59 12.41 2.85 23.16 10.41 24.59 8.07 1.52 16.68-8.14 19.22-21.58 1.96-10.4-.28-20.01-5.13-24.54zm-3.94 7.03c1.66 3.9 2.1 9.82.9 16.18-1.9 9.95-7.13 17.42-12 17.42a4.27 4.27 0 0 1-.87-.08c-4.94-.93-7.46-9.71-5.81-19.84.06-.32 11.16-4 17.77-13.63l.01-.05z" id="path41-5" fill="#fff" opacity=".2"/></svg>