<svg xmlns="http://www.w3.org/2000/svg"><path d="M97 122.5s-2.8 5.5-5.5 7.5c-1.2.8-2.3 1.8-3.4 2.7v4.4c0 .4 10.2-3 8.9-14.6z" fill="#6d4716"/><path d="M97.6 122.5s-5.4-1.4-8.9 2-3.4 8.2-1.4 8.2 2.2.7 10.3-10.2z" fill="#fff"/><path d="M123.5 106.8s-4.8-8.2-19.1-.7c-14.3 7.5-2.7 23.2-15.7 30.7 0 0 3.354 4.286 8.427-5.873C101.81 121.55 101.7 106.2 123.5 106.8z" fill="#99671d"/><path d="M88.8 136.8s6.1 2.7 10.2-10.9 8.9-21.8 20.4-21.1c1.6 0 3.2.6 4.4 1.7 5.6 5 1.3 19.6-4.4 24.2-6.8 5.4-21.8 10.9-27.9 8.9s-2.7-2.8-2.7-2.8z" fill="#444"/><path d="M87.8 117.2l1 7.4c1.9-1.4 3.6-2.3 5-2.3l-.6-6.2c-1.8.5-3.6.8-5.4 1.1z" fill="#ffc866"/><path d="M122.2 110.6h-11.6c-.3 0-.5-.2-.5-.5v-.1c0-.3.2-.5.5-.5h11.6c.3 0 .5.2.5.5v.1c0 .3-.2.5-.5.5zM123.3 113.8h-14.7c-.3 0-.5-.2-.5-.5v-.1c0-.3.2-.5.5-.5h14.7c.3 0 .5.2.5.5v.1c0 .3-.3.5-.5.5zM123.3 116.9h-17.9c-.3 0-.5-.2-.5-.5v-.1c0-.3.2-.5.5-.5h17.9c.3 0 .5.2.5.5v.1c0 .3-.3.5-.5.5zM122.2 120.1h-17.9c-.3 0-.5-.2-.5-.5v-.1c0-.3.2-.5.5-.5h17.9c.3 0 .5.2.5.5v.1c0 .2-.2.5-.5.5zM121.1 123.2h-17.9c-.3 0-.5-.2-.5-.5v-.1c0-.3.2-.5.5-.5h17.9c.3 0 .5.2.5.5v.1c0 .3-.2.5-.5.5zM119.1 126.4h-17.9c-.3 0-.5-.2-.5-.5v-.1c0-.3.2-.5.5-.5h17.9c.3 0 .5.2.5.5v.1c0 .2-.3.5-.5.5zM117 129.5h-15.8c-.3 0-.5-.2-.5-.5s.2-.5.5-.5H117c.3 0 .5.2.5.5v.1c0 .2-.3.4-.5.4zM112.8 132.7H99.1c-.3 0-.5-.2-.5-.5v-.1c0-.3.2-.5.5-.5h13.7c.3 0 .5.2.5.5v.1c0 .2-.3.5-.5.5zM107.5 135.8H98c-.3 0-.5-.2-.5-.5v-.1c0-.3.2-.5.5-.5h9.5c.3 0 .5.2.5.5v.1c0 .3-.2.5-.5.5z"/><path d="M63 123.5s-2.8 5.5-5.5 7.5c-1.2.8-2.3 1.8-3.4 2.7v4.4c0 .4 10.2-3 8.9-14.6z" fill="#6d4716"/><path d="M60.303 113.013l-2.117 11.269c1.9-1.4 2.73-.233 4.13-.233l2.23-9.233c-2.069-.459-2.922-1.444-4.243-1.803z" fill="#ffc866"/><path d="M63.6 123.5s-5.5-1.4-8.9 2c-3.4 3.4-3.4 8.2-1.4 8.2s2.2.7 10.3-10.2z" fill="#fff"/><path d="M89.5 107.8s-4.8-8.2-19.1-.7c-14.3 7.5-2.7 23.2-15.7 30.7 0 0 3.608 4.032 8.427-5.915C67.697 122.452 67.7 107.2 89.5 107.8z" fill="#99671d"/><path d="M54.8 137.8s6.1 2.7 10.2-10.9 8.9-21.8 20.4-21.1c1.6 0 3.2.6 4.4 1.7 5.6 5 1.3 19.6-4.4 24.2-6.8 5.4-21.8 10.9-28 8.9s-2.6-2.8-2.6-2.8z" fill="#444"/><path d="M88.2 111.6H76.6c-.3 0-.5-.2-.5-.5v-.1c0-.3.2-.5.5-.5h11.6c.3 0 .5.2.5.5v.1c0 .3-.2.5-.5.5zM89.3 114.8H74.5c-.3 0-.5-.2-.5-.5v-.1c0-.3.2-.5.5-.5h14.7c.3 0 .5.2.5.5v.1c.1.3-.2.5-.4.5zM89.3 117.9H71.4c-.3 0-.5-.2-.5-.5v-.1c0-.3.2-.5.5-.5h17.9c.3 0 .5.2.5.5v.1c0 .3-.3.5-.5.5zM88.2 121.1H70.3c-.3 0-.5-.2-.5-.5v-.1c0-.3.2-.5.5-.5h17.9c.3 0 .5.2.5.5v.1c0 .2-.2.5-.5.5zM87.1 124.2H69.3c-.3 0-.5-.2-.5-.5v-.1c0-.3.2-.5.5-.5h17.9c.3 0 .5.2.5.5v.1c-.1.3-.3.5-.6.5zM85.1 127.4H67.2c-.3 0-.5-.2-.5-.5v-.1c0-.3.2-.5.5-.5h17.9c.3 0 .5.2.5.5v.1c0 .2-.3.5-.5.5zM83 130.5H67.2c-.3 0-.5-.2-.5-.5s.2-.5.5-.5H83c.3 0 .5.2.5.5v.1c0 .2-.3.4-.5.4zM78.8 133.7H65.1c-.3 0-.5-.2-.5-.5v-.1c0-.3.2-.5.5-.5h13.7c.3 0 .5.2.5.5v.1c0 .2-.3.5-.5.5zM73.5 136.8H64c-.3 0-.5-.2-.5-.5v-.1c0-.3.2-.5.5-.5h9.5c.3 0 .5.2.5.5v.1c0 .3-.2.5-.5.5z"/></svg>