<svg xmlns="http://www.w3.org/2000/svg" id="Layer_1"><path d="M64.5 122.5s2.7 5.5 5.5 7.5c1.2.8 2.3 1.8 3.4 2.7v4.4c0 .4-10.2-3-8.9-14.6z" id="path6" fill="#6d4716"/><path d="M63.8 122.5s5.5-1.4 8.9 2 3.4 8.2 1.4 8.2-2.1.7-10.3-10.2z" id="path8" fill="#fff"/><path d="M37.9 106.8s4.8-8.2 19.1-.7c14.3 7.5 2.7 23.2 15.7 30.7 0 0-3.7 3.654-8.36-5.925C59.755 121.45 59.8 106.2 37.9 106.8z" id="path10" fill="#99671d"/><path d="M72.7 136.8s-6.1 2.7-10.2-10.9-8.9-21.8-20.5-21.1c-1.6 0-3.2.6-4.4 1.7-5.5 5-1.3 19.6 4.4 24.2 6.8 5.4 21.8 10.9 28 8.9s2.7-2.8 2.7-2.8z" id="path12" fill="#444"/><path d="M73.7 117.2l-1 7.4c-1.9-1.4-3.6-2.3-5-2.3l.7-6.2c1.7.5 3.4.8 5.3 1.1z" id="path14" fill="#ffc866"/><path d="M39.3 109.6h11.6c.3 0 .5.2.5.5v.1c0 .3-.2.5-.5.5H39.3c-.3 0-.5-.2-.5-.5v-.1c0-.3.2-.5.5-.5z" id="path16"/><path d="M38.2 112.7H53c.3 0 .5.2.5.5v.1c0 .3-.2.5-.5.5H38.2c-.3 0-.5-.2-.5-.5v-.1c0-.2.3-.5.5-.5z" id="path18"/><path d="M38.2 115.9h17.9c.3 0 .5.2.5.5v.1c0 .3-.2.5-.5.5H38.2c-.3 0-.5-.2-.5-.5v-.1c0-.3.3-.5.5-.5z" id="path20"/><path d="M39.3 119h17.9c.3 0 .5.2.5.5v.1c0 .3-.2.5-.5.5H39.3c-.3 0-.5-.2-.5-.5v-.1c0-.2.2-.5.5-.5z" id="path22"/><path d="M40.3 122.2h17.9c.3 0 .5.2.5.5v.1c0 .3-.2.5-.5.5H40.3c-.3 0-.5-.2-.5-.5v-.1c0-.3.3-.5.5-.5z" id="path24"/><path d="M42.4 125.3h17.9c.3 0 .5.2.5.5v.1c0 .3-.2.5-.5.5H42.4c-.3 0-.5-.2-.5-.5v-.1c0-.3.2-.5.5-.5z" id="path26"/><path d="M44.5 128.5h15.8c.3 0 .5.2.5.5v.1c0 .3-.2.5-.5.5H44.5c-.3 0-.5-.2-.5-.5v-.1c0-.3.2-.5.5-.5z" id="path28"/><path d="M48.7 131.6h13.7c.3 0 .5.2.5.5v.1c0 .3-.2.5-.5.5H48.7c-.3 0-.5-.2-.5-.5v-.1c0-.3.2-.5.5-.5z" id="path30"/><path d="M54 134.8h9.5c.3 0 .5.2.5.5v.1c0 .3-.2.5-.5.5H54c-.3 0-.5-.2-.5-.5v-.1c0-.3.2-.5.5-.5z" id="path32"/><circle cx="102.8" cy="123.9" r="15.5" id="circle34" fill="#fff"/><path d="M102.8 109.4c8 0 14.5 6.5 14.5 14.5s-6.5 14.5-14.5 14.5-14.5-6.5-14.5-14.5 6.5-14.5 14.5-14.5m0-1c-8.6 0-15.5 6.9-15.5 15.5s6.9 15.5 15.5 15.5 15.5-6.9 15.5-15.5-7-15.5-15.5-15.5z" id="path43" fill="url(#SVGID_1_)"/><g id="g47" opacity=".15"><path d="M118.3 123.9c0 8.5-6.9 15.5-15.5 15.5-5 .1-9.8-2.4-12.6-6.5 23.3 5.6 23.3-18.7 19.1-23 5.5 2.3 9.1 7.9 9 14z" id="path45"/></g><path d="M111.2 122l-1.9 6.6c-.1.4-.4.6-.8.6l-6.8.2c-.4 0-.7-.2-.8-.6l-2.3-6.4c-.1-.4 0-.8.3-1l5.4-4.2c.3-.2.7-.2 1 0l5.6 3.9c.2.2.4.5.3.9z" id="path49"/><path d="M108.8 109.6l-4.2 3.2c-.3.2-.7.2-1 0l-5.5-3.8c3.5-1.1 7.3-.9 10.7.6z" id="path51"/><path d="M99.2 134.1l1.8 5.1c-2.2.1-9-2.8-10-5.2 0-.2.3-.2.6-.2l6.9-.2c.3 0 .6.2.7.5z" id="path53"/><path d="M90.9 113.9l1.9 5.4c.1.3 0 .7-.3.9l-5.3 4.1c-.1-3.8 1.2-7.5 3.7-10.4z" id="path55"/><path d="M110.8 137.2l1.4-4.7c.1-.3.4-.6.8-.6l3.2-.1c-1.4 2.2-3.2 4-5.4 5.4z" id="path57"/><path d="M118 120.7l-1.7-1.1c-.3-.2-.4-.6-.3-.9l.6-1.9c.7 1.2 1.2 2.5 1.4 3.9z" id="path59"/><path d="M100.795 129.447a.25.25 0 0 0-.227.158l-1.4 3.399a.25.25 0 1 0 .463.191l1.4-3.4a.25.25 0 0 0-.236-.348z" id="line61"/><path d="M93.566 119.85a.25.25 0 0 0-.056.484l3.4 1.299a.25.25 0 1 0 .18-.467l-3.4-1.299a.25.25 0 0 0-.124-.017z" id="line63"/><path d="M115.299 118.648a.25.25 0 0 0-.113.03l-3.301 1.699a.25.25 0 1 0 .23.445l3.3-1.699a.25.25 0 0 0-.116-.475z" id="line65"/><path d="M103.908 112.846a.25.25 0 0 0-.258.267l.2 3.701a.25.25 0 1 0 .5-.027l-.2-3.701a.25.25 0 0 0-.242-.24z" id="line67"/><path d="M109.498 128.848a.25.25 0 0 0-.176.43l2.602 2.599a.25.25 0 1 0 .353-.354l-2.6-2.6a.25.25 0 0 0-.179-.075z" id="line69"/></svg>