<svg xmlns="http://www.w3.org/2000/svg"><path d="M61 114.7c6.6 6.9 16.636 13.13 26.562 16.028-7 2.5-7.962 6.472-9.562 12.272 0 0 15.4-3.3 17-7.7 0 0 6 6.8 18 5.8-2.2-5.8-9-12.2-18-13.5-2.7 0-4.2-6.8 3-12.6-22 8.7-37-.3-37-.3z" fill="currentColor"/><path d="M87.562 130.728C81 132.85 79.33 137.38 78 143c0 0 15.4-3.3 17-7.7 0 0 6 6.8 18 5.8-2.2-5.8-9-12.2-18-13.5-.068.437-.63.928-.552 2.244-1.648-.346-4.327.057-6.886.884z"/><path d="M91 128.5s14 4.8 22 12.6c-2.2-5.8-9-12.2-18-13.5-2.7 0-4.2-6.8 3-12.6-2.8 1.1-5.6 2-8.5 2.6-2.5 8 1.5 10.9 1.5 10.9z" fill="#010101" opacity=".1"/></svg>