<svg xmlns="http://www.w3.org/2000/svg" id="Layer_1"><path d="M95.8 115.5c.8.9 1.7 1.8 2.7 2.5.443 0 1.258-2.352 2.107-4.973 2.652-1.79 2.232-1.442 4.697-3.5C108.406 115.975 113.9 129 113.9 129l-1.9 10v-9s-7.7-17-8.7-17c-1 0-2.9 11-3.9 11-.5 0-7.3-7.2-7.3-7.2z" id="path8"/><path d="M55.9 110.6s-3.6 3.4-4 3.4c-1.1 0-4.4-12-5.5-12s-12.1 23-12.1 23l2.2 10v-9s8.8-17 9.9-17 3.3 11 4.4 11c.5 0 8.3-7.1 8.3-7.1l-3.2-2.3z" id="path10"/><g id="g14" fill="#010101" opacity=".2"><path d="M55.9 110.6s-3.6 3.4-4 3.4c-1.1 0-4.4-12-5.5-12s-12.1 23-12.1 23l2.2 10v-9s8.8-17 9.9-17 3.3 11 4.4 11c.5 0 8.3-7.1 8.3-7.1l-3.2-2.3z" id="path12"/></g><path d="M70 107.1s-9 12.3-10 12.3-4-13.4-5-13.4-11 25.8-11 25.8l2 11.2v-10.1s8-19.1 9-19.1 3 12.3 4 12.3 15-16.8 15-16.8 0-3.3-4-2.2z" id="path16"/><path d="M60 122.4c-1 0-4-12.4-5-12.4s-10 21.8-10 21.8l1 11.2v-10.1s8-19.1 9-19.1 3 12.3 4 12.3 15-16.8 15-16.8c0-.9-.5-1.8-1.3-2.2-.6-.3-11.7 15.3-12.7 15.3z" id="path18" fill="#010101" opacity=".1"/><g id="g22" fill="#010101" opacity=".2"><path d="M95.8 115.5c.8.9 1.7 1.8 2.7 2.5.442 0 1.256-2.346 2.104-4.963 2.61-1.747 2.294-1.512 4.703-3.503C108.41 115.982 113.9 129 113.9 129l-1.9 10v-9s-7.7-17-8.7-17c-1 0-2.9 11-3.9 11-.5 0-7.3-7.2-7.3-7.2z" id="path20"/></g><path d="M96 107.179s9 12.3 10 12.3 4-13.5 5-13.5 11 25.8 11 25.8l-2 11.2v-10.1s-8-19.1-9-19.1-3 12.3-4 12.3-15-16.8-15-16.8 0-3.2 4-2.1z" id="path24"/></svg>