<svg xmlns="http://www.w3.org/2000/svg"><path d="M101.625 127.793c.623-6.898-.75-8.87-.75-8.87s-1.623-10.246-6.443-12.834c-3.136-1.78-5.667-1.826-7.928-1.113-2.138.025-4.184.675-6.023 1.87-.116.08-.33.144-.446.225a34.105 34.105 0 0 1-13.184-2.967 15.605 15.605 0 0 0-9.95-1.169c-4.704.175-10.045 2.776-11.133 12.842-1.838 16.534 6.556 24.13 6.556 24.13 3.75 4.023 10.655 6.882 16.214 5.336 2.433.029 4.729-.881 6.62-2.372 0 0 4.133-6.067 10.022-7.757l.313-.046c2.71.18 5.474.064 8.111-.48 4.507-.21 7.517-1.704 8.02-6.795z" fill="#fd9727"/><g opacity=".8"><path d="M82.035 106.108c-.214.063-.33.144-.562.305.133-.179.348-.242.562-.305zM82.812 105.739l-.545.207zM62.501 145.485l-1.28-.229 1.28.229zM81.258 106.477l-.777.369zM51.673 104.337l-.348.243zM83.572 105.468l-.43.127zM64.39 145.72l-.609-.006zM53.227 103.6l-.33.143zM52.468 103.87l-.33.144zM63.387 145.643l-.59-.105zM59.879 144.813l-.573-.204zM55.58 142.724l-.36-.268zM54.764 142.171l-.359-.267zM60.845 145.087l-.573-.204zM56.77 143.445l-.456-.285zM58.831 144.422l-.573-.204zM69.428 143.675c-1.08.925-2.42 1.6-3.805 1.961.922-.038 1.86-.175 2.718-.428 2.433.029 4.73-.882 6.62-2.372 0 0 4.035-6.085 10.022-7.758-.92.039-1.86.176-2.816.411-7.334.111-12.74 8.186-12.74 8.186zM53.966 141.52l-.26-.249zM53.07 140.853l-.26-.25zM49.816 105.63l-.25.26zM101.625 127.793c.623-6.898-.75-8.87-.75-8.87s-1.623-10.246-6.443-12.834c-3.136-1.78-5.667-1.826-7.928-1.113-.921.039-1.86.176-2.718.429 1.807.12 3.544.633 5.112 1.523 4.82 2.589 6.442 12.834 6.442 12.834s1.374 1.973.75 8.87c-.408 3.99-2.335 5.678-5.32 6.465.921-.038 1.86-.175 2.817-.41 4.524-.31 7.534-1.803 8.038-6.894zM87.908 135.195l-.805-.042zM47.19 109.53l-.036.196.035-.197zM89.125 135.21l-.707-.025zM46.665 110.756c-.017.099-.053.296-.169.376.116-.08.134-.179.17-.376zM46.32 112.117l-.087.492c-.081-.116.052-.295.087-.492zM57.9 143.951l-.475-.186zM90.26 135.108l-.724.073zM45.853 114.166l.087-.492-.087.492zM50.53 105.047l.348-.242-.348.242zM66.752 104.087a15.605 15.605 0 0 0-9.95-1.17c-.92.04-1.86.176-2.815.412 2.45-.07 4.992.486 7.133 1.58 3.055 1.663 12.301 3.925 16 2.555a5.949 5.949 0 0 0 3.263-.636c-.116.08-.33.144-.447.225a34.105 34.105 0 0 1-13.184-2.966zM48.515 107.227c-.116.08-.151.277-.267.358.134-.179.151-.277.267-.358zM47.847 108.123c-.018.099-.134.18-.169.376.116-.08.134-.179.17-.376zM65.409 145.7l-.51.01zM49.183 106.33l-.267.359zM86.594 135.163l-1.315-.032zM64.9 145.71l-.51.01zM90.672 135.08l-.411.028zM58.356 144.236l-.474-.187zM86.987 135.233l-.411.029zM65.606 145.735l-.215.063zM88.32 135.167l-.51.01zM61.32 145.274l-.394-.07zM89.635 135.199l-.51.01zM63.897 145.633l-.394-.07zM59.306 144.609l-.475-.187zM60.255 144.982l-.376-.17zM50.53 105.047a4.35 4.35 0 0 0-.714.584c.232-.162.482-.422.714-.584zM48.266 107.487c-.134.18-.285.457-.419.636.134-.18.267-.358.419-.636zM47.056 109.709c-.152.277-.32.653-.39 1.047.168-.376.32-.654.39-1.047z"/><path d="M47.678 108.5c-.169.375-.32.653-.489 1.03.17-.377.32-.655.49-1.03zM48.916 106.689l-.4.538.4-.538zM49.665 105.908c-.134.18-.267.359-.5.52.152-.277.286-.456.5-.52zM46.577 111.248c-.052.296-.204.573-.274.967.07-.394.123-.689.274-.967zM83.572 105.468l.214-.063zM53.227 103.6l.76-.271zM46.134 112.591l-.176.985.176-.985zM50.878 104.805l.464-.324zM45.652 115.858c.105-.591.095-1.1.2-1.692-.087.493-.193 1.083-.2 1.692zM83.027 105.675l-.33.144zM52.12 104.112l-.447.225zM54.405 141.904l-.44-.383zM56.215 143.142l-.653-.32zM52.908 140.62c-.26-.249-.422-.481-.682-.73.144.33.421.481.682.73zM55.301 142.572l-.537-.4zM53.607 141.254l-.538-.401zM81.473 106.413l-.215.064zM84.966 135.177l.411-.028zM52.897 103.743l-.43.127zM57.425 143.765l-.654-.32zM82.267 105.946l-.232.162z"/></g><circle cx="100.626" cy="105.117" r="5.7" transform="rotate(10.135)" fill="#33221f"/><path d="M113.016 114.084l-28.174 3.66a5.7 5.7 0 0 1 1.074 4.442 5.7 5.7 0 0 1-.453 1.408l28.338-3.682c.411-.028.698-.485.67-.896l-.559-4.264c-.028-.411-.485-.696-.896-.668z" fill="#543933"/><path d="M68.413 115.253l2.585 15.09-3.558.584-.291-1.78c-.94.138-1.934-.548-2.07-1.487l.017-.098c-.292-1.78-1.535-7.894-1.535-7.894.123-.689.738-1.29 1.382-1.48l-.186-2.37z"/><path d="M118.971 110.882l6.867-.906c2.7-.33 5.112 1.523 5.54 4.24l.12 1.038c.33 2.7-1.524 5.112-4.242 5.54l-6.866.906c-2.7.33-5.112-1.523-5.54-4.241l-.12-1.037c-.33-2.7 1.524-5.112 4.241-5.54z" fill="#fd9727"/><path d="M118.971 110.882l6.867-.906c2.7-.33 5.112 1.523 5.54 4.24l.12 1.038c.33 2.7-1.524 5.112-4.242 5.54l-6.866.906c-2.7.33-5.112-1.523-5.54-4.241l-.12-1.037c-.33-2.7 1.524-5.112 4.241-5.54z" opacity=".2"/><path d="M116.62 110.97s-.587-1.833.96-1.963c1.547-.13 1.328 1.66 1.328 1.66zM120.21 121.566s.489 1.815-.96 1.962c-1.448.147-1.328-1.66-1.328-1.66zM124.342 121.187s.488 1.815-.96 1.962c-1.449.147-1.33-1.66-1.33-1.66zM127.882 120.703s.489 1.814-.96 1.962c-1.448.147-1.329-1.66-1.329-1.66zM120.768 110.492s-.587-1.832.96-1.962c1.547-.13 1.329 1.66 1.329 1.66zM124.9 110.113s-.588-1.832.96-1.962c1.546-.13 1.328 1.66 1.328 1.66z" fill="#543933"/><path d="M118.085 110.723l6.867-.906c2.7-.33 5.112 1.524 5.54 4.241l.12 1.038c.33 2.7-1.524 5.111-4.241 5.54l-6.867.906c-2.7.33-5.112-1.524-5.54-4.241l-.12-1.038c-.33-2.7 1.622-5.094 4.241-5.54z" fill="#fd9727"/><path d="M117.512 113.364l8.53-1.117c.312-.046.573.204.618.517.046.313-.204.573-.517.619l-8.53 1.116c-.312.046-.572-.204-.618-.517-.046-.313.204-.573.517-.618zM118.58 117.618l8.53-1.117c.312-.045.573.204.618.517.046.313-.204.573-.517.619l-8.53 1.117c-.312.045-.572-.205-.618-.517-.063-.215.204-.573.517-.62z"/></svg>