<svg xmlns="http://www.w3.org/2000/svg" id="Layer_1"><path d="M129.1 114.1c1.2-1.8-.9-2.8-3.2-2.3 0 0-14.608 2.599-29.966 3.957-13.258 5.788-27.076 6.023-35.694-1.543-12.59-2.963-22.405-7.518-25.74-5.814 0 0-6.6.9-5.3 5.3-.1 1.3.2 2.5.8 3.7 3.6 5.7 39.8 13.8 72.4 8 18.3-3.2 25.2-6.8 26.7-9.2.3-.6.3-1.4 0-2.1zM54 123.4c-8.4-1.2-15.6-3-20.1-5.3 4.3 2 11.4 3.9 20.1 5.3zm45.8.3c.8-.1 1.7-.3 2.5-.4 2.3-.4 4.5-.8 6.5-1.2-2.8.6-5.8 1.2-9 1.6z" id="path6" fill="#fff" stroke-width=".1"/><circle cx="63.8" cy="134.7" r="6.1" id="circle8" fill="#490b37"/><circle cx="61.1" cy="134.5" r="6.1" id="circle10"/><circle cx="111.3" cy="133.1" r="6.1" id="circle14" fill="#490b37"/><circle cx="61.1" cy="134.5" r="6.1" id="circle10-3" fill="#fff" opacity=".4"/><path d="M56.5 132l4.2.4c.7.1 1.2.7 1.2 1.4l-.1 1.5c-.1.7-.7 1.2-1.4 1.2l-4.2-.4c-.7-.1-1.2-.7-1.2-1.4l.1-1.5c.1-.7.7-1.2 1.4-1.2z" id="path12" fill="#010101"/><circle cx="108.7" cy="133.7" r="6.1" id="circle16"/><circle cx="108.7" cy="133.7" r="6.1" id="circle16-6" fill="#fff" opacity=".4"/><path d="M103.5 132.7l4.1-.9c.7-.2 1.4.3 1.5 1l.3 1.5c.2.7-.3 1.4-1 1.5l-4.1.9c-.7.2-1.4-.3-1.5-1l-.3-1.5c-.2-.6.3-1.3 1-1.5z" id="path18" fill="#010101"/><circle cx="99.3" cy="135.7" r="6.1" id="circle20" fill="#490b37"/><circle cx="96.6" cy="136.3" r="6.1" id="circle22" fill="#fff"/><circle cx="96.6" cy="136.3" r="3.4" id="circle24"/><path d="M120.3 125.5c-14.3 4.5-59.6 9.8-77.8-.9-1.8-1-4.4-2.9-4.4-2.9s32.9 10.8 72.9 1.8c11.3-2.9 18-5.5 18.4-9.2 3.1 2-2.5 9.1-9.1 11.2z" id="path26" fill="#490b37"/><path d="M29.2 113.6c-.1 1.3.2 2.5.8 3.7 3.6 5.7 39.8 13.8 72.4 8 18.3-3.2 25.2-6.8 26.7-9.2.5-.8 0-2.6-.1-1.9-6 4.7-23.4 10-43.3 10.7-26.1 1-54.4-3.7-56.5-11.3z" id="path28" opacity=".1"/><circle cx="51.7" cy="133.7" r="6.1" id="circle30" fill="#490b37"/><circle cx="49" cy="133.4" r="6.1" id="circle32" fill="#fff"/><circle cx="49" cy="133.4" r="3.4" id="circle34"/><path d="M34.5 108.4s-8.1 1.2-4.5 6.9c3.6 5.7 39.8 13.8 72.4 8 18.3-3.2 25.2-6.8 26.7-9.2 1.2-1.8-.8-2.8-3.2-2.3 0 0-14.633 2.604-30.006 3.961-16.303 5.855-30.28 2.011-35.633-1.543-12.601-2.962-22.424-7.523-25.761-5.818z" id="path36"/><g id="g40" fill="#010101" opacity=".15"><ellipse cx="79" cy="121" rx="18" ry="2" id="ellipse38"/></g></svg>