<svg xmlns="http://www.w3.org/2000/svg" id="Layer_1"><path d="M64.7 115.9s-2.8 10.7-11.2 12.9c-5 1.3-10.3.5-14.6-2.2 0 0-3.9-1.1-1.7 2.8s8.4 11.8 25.8 5.6 18-16.9 18-16.9-11.2 1.2-16.3-2.2z" id="path6" fill="currentColor"/><g id="g10" fill="#010101" opacity=".2"><path d="M64.7 115.9s-2.8 10.7-11.2 12.9c-5 1.3-10.3.5-14.6-2.2 0 0-3.9-1.1-1.7 2.8s8.4 11.8 25.8 5.6 18-16.9 18-16.9-11.2 1.2-16.3-2.2z" id="path8"/></g><path d="M58 112s-6.2 13.5-15.2 3.9c0 0-5.6-5.6-3.4 1.1s11.1 18.7 30.3.9c0 .1-7.8-2-11.7-5.9z" id="path12" fill="currentColor"/><g id="g44"><ellipse transform="rotate(-64.97 45.937 121.615)" cx="45.9" cy="121.6" rx="1.4" ry="1.8" id="ellipse42"/></g><g id="g40"><ellipse transform="rotate(-2.537 50.987 122.316) scale(.99998)" cx="51" cy="122.3" rx="1.8" ry="1.4" id="ellipse38"/></g><g id="g48"><ellipse transform="rotate(-27.511 55.6 121.079)" cx="55.6" cy="121.1" rx="1.4" ry="1.1" id="ellipse46"/></g><g id="g52"><ellipse transform="rotate(-47.833 58.415 118.595)" cx="58.4" cy="118.6" rx="1.4" ry="1.1" id="ellipse50"/></g><path d="M58 112s-6.2 13.5-15.2 3.9c0 0-5.6-5.6-3.4 1.1s11.1 18.7 30.3.9c0 .1-7.8-2-11.7-5.9z" id="path14" fill="#010101" opacity=".3"/><path d="M62.5 114.8s-1.7 14.6-7.3 14.6c0 0-2.2 0-3.9-2.8s-3.4-2.2-2.8.6S50.7 139.6 62 139s15.7-11.2 15.7-17.4v-3.2c-.1 0-9.6.3-15.2-3.6z" id="path16" fill="currentColor"/><g id="g24"><ellipse transform="rotate(-37.127 64.15 128.308)" cx="64.1" cy="128.3" rx="2.2" ry="1.7" id="ellipse22"/></g><g id="g28"><ellipse transform="rotate(-9.55 58.514 131.12)" cx="58.5" cy="131.1" rx="2.2" ry="1.7" id="ellipse26"/></g><g id="g32"><ellipse transform="rotate(-62.089 67.962 123.806)" cx="68" cy="123.8" rx="1.8" ry="1.3" id="ellipse30"/></g><g id="g36"><ellipse transform="rotate(-82.409 69.094 119.33)" cx="69.1" cy="119.3" rx="1.8" ry="1.3" id="ellipse34"/></g><path d="M94.8 115.9s2.8 10.7 11.2 12.9c5 1.3 10.3.5 14.6-2.2 0 0 3.9-1.1 1.7 2.8s-8.4 11.8-25.9 5.6-18-16.9-18-16.9 11.3 1.2 16.4-2.2z" id="path54" fill="currentColor"/><g id="g58" fill="#010101" opacity=".2"><path d="M94.8 115.9s2.8 10.7 11.2 12.9c5 1.3 10.3.5 14.6-2.2 0 0 3.9-1.1 1.7 2.8s-8.4 11.8-25.9 5.6-18-16.9-18-16.9 11.3 1.2 16.4-2.2z" id="path56"/></g><path d="M101.5 112s6.2 13.5 15.2 3.9c0 0 5.6-5.6 3.4 1.1s-11.2 18.7-30.3.9c-.1.1 7.8-2 11.7-5.9z" id="path60" fill="currentColor"/><g id="g92"><ellipse transform="rotate(-25.028 113.533 121.61)" cx="113.5" cy="121.6" rx="1.8" ry="1.4" id="ellipse90"/></g><g id="g88"><ellipse transform="rotate(-87.46 108.477 122.317) scale(.99998)" cx="108.5" cy="122.3" rx="1.4" ry="1.8" id="ellipse86"/></g><g id="g96"><ellipse transform="rotate(-62.489 103.872 121.096)" cx="103.9" cy="121.1" rx="1.1" ry="1.4" id="ellipse94"/></g><g id="g100"><ellipse transform="rotate(-42.166 101.065 118.607)" cx="101.1" cy="118.6" rx="1.1" ry="1.4" id="ellipse98"/></g><path d="M101.5 112s6.2 13.5 15.2 3.9c0 0 5.6-5.6 3.4 1.1s-11.2 18.7-30.3.9c-.1.1 7.8-2 11.7-5.9z" id="path62" fill="#010101" opacity=".2"/><path d="M97 114.8s1.7 14.6 7.3 14.6c0 0 2.2 0 3.9-2.8s3.4-2.2 2.8.6-2.2 12.4-13.5 11.8-15.7-11.2-15.7-17.4v-3.2s9.6.3 15.2-3.6z" id="path64" fill="currentColor"/><g id="g72"><ellipse transform="rotate(-52.872 95.328 128.297)" cx="95.3" cy="128.3" rx="1.7" ry="2.2" id="ellipse70"/></g><g id="g76"><ellipse transform="rotate(-80.45 100.945 131.107)" cx="100.9" cy="131.1" rx="1.7" ry="2.2" id="ellipse74"/></g><g id="g80"><ellipse transform="rotate(-27.908 91.512 123.798)" cx="91.5" cy="123.8" rx="1.3" ry="1.8" id="ellipse78"/></g><g id="g84"><ellipse transform="rotate(-7.591 90.384 119.292)" cx="90.4" cy="119.3" rx="1.3" ry="1.8" id="ellipse82"/></g></svg>