<svg xmlns="http://www.w3.org/2000/svg"><path d="M86.8 118.7L108 109c5.8 10.7 5 19.9 0 28.1l-21.2-10.8c.9-1.1 1.9-5.2 0-7.6z"/><path d="M86.8 118.7L108 109c5.8 10.7 5 19.9 0 28.1l-21.2-10.8c.9-1.1 1.9-5.2 0-7.6z" opacity=".15"/><path d="M97.9 125.9l-7.1-1.6s-1.2-.1-1.1-.8c.1-.7 1.3-.5 1.3-.5l7.2.2c.7.1 1.2.8 1.1 1.5-.1.7-.7 1.2-1.4 1.2zM98.2 120l-7.1 1.4s-1.1.4-1.3-.3c-.2-.7 1-1 1-1l6.8-2.7c.6-.2 1.3.2 1.4.9v.1c.3.7-.1 1.3-.8 1.6z" fill="#010101" opacity=".5"/><path d="M79.1 117.7l-26-12c-5.5 9.6-5.5 21.2 0 34.6l26.148-13.374c-1.2-1.3-3.82-5.386-.148-9.226z"/><path d="M79.1 117.7l-26-12c-5.5 9.6-5.5 21.2 0 34.6l26.148-13.374c-1.2-1.3-3.82-5.386-.148-9.226z" fill="#fff" opacity=".15"/><ellipse cx="83.9" cy="122.1" rx="6.7" ry="6.7"/><path d="M66.755 127.042l9.158-2.273s1.589-.217 1.438-.908c-.15-.69-1.732-.374-1.732-.374l-9.36.884c-.798.058-1.345.8-1.287 1.598.258.783.992 1.231 1.783 1.073zM66.3 120.063l9.3 1.4s1.5.4 1.7-.3c.2-.7-1.3-1-1.3-1l-8.9-2.7c-.8-.2-1.6.2-1.9 1-.2.7.3 1.4 1.1 1.6z" opacity=".5" fill="#010101"/></svg>