<svg xmlns="http://www.w3.org/2000/svg"><path d="M73.7 124.8c0-.3 0-.7-.1-1 0-2 .1-6.3.1-6.3l-3.8-.5.5 4c-3-.2-5.9.5-8.5 2-3 2-5 5-3 8s6 3 11 0c2.3-1.2 3.7-3.6 3.8-6.2z" fill="currentColor"/><path d="M76.8 122s0-2.1-3.2-2.5c0 1.4-.1 3.2 0 4.3.1.3.1.7.1 1-.1 2.6-1.5 5-3.8 6.2-5 3-9 3-11 0s0-6 3-8c2.6-1.5 5.5-2.2 8.5-2l-.2-1.3c-1.8.3-3.6.8-5.3 1.3-12 4-13 16-12 17s3 2 10 2c4.2-.1 8-2.3 10-6l1 5s2 2 3 0-.1-17-.1-17z"/><path d="M87.2 124.8c0-.3 0-.7.1-1 0-2-.1-6.3-.1-6.3l3.8-.5-.5 4c3-.2 5.9.5 8.5 2 3 2 5 5 3 8s-6 3-11 0c-2.3-1.2-3.8-3.6-3.8-6.2z" fill="currentColor"/><path d="M84 122s0-2.1 3.2-2.5v4.3c-.1.3-.1.7-.1 1 .1 2.6 1.5 5 3.8 6.2 5 3 9 3 11 0s0-6-3-8c-2.6-1.5-5.5-2.2-8.5-2l.2-1.3c1.8.3 3.6.8 5.3 1.3 12 4 13 16 12 17s-3 2-10 2c-4.2-.1-8-2.3-10-6l-1 5s-2 2-3 0 .1-17 .1-17z"/></svg>