<svg xmlns="http://www.w3.org/2000/svg"><path d="M43.8 62.3c-2.8.7-3.5-1.6.2-5.3 10.7-9.5 24.7-14.6 39-14 24 1 31 10 31 10s4 5-2.4 3.7c0 0-31-14.1-67.8 5.6z" fill="#743a4b"/><path d="M45.5 60.2C52 54.9 59.7 51.4 68 50c18-4 39.1 1.6 39.1 1.6s5.9 1.1 5.9 3.3-3 .2-3 .2c-24.3-5.3-47.7-5.6-66 8 0-.1-1-.7 1.5-2.9z" opacity=".2"/><ellipse transform="rotate(-23.908 94.031 37.34)" cx="94" cy="37.3" rx="14.8" ry="16.9" fill="#c1c1c1"/><ellipse transform="rotate(-24.259 94.674 36.236)" cx="94.7" cy="36.2" rx="14.1" ry="16.2" fill="#efefef"/><ellipse transform="rotate(-17.06 95.353 36.694)" cx="95.4" cy="36.7" rx="11.5" ry="13" fill="#fff"/><ellipse transform="rotate(-17.06 96.115 36.47)" cx="96.1" cy="36.5" rx="3.5" ry="4"/><path d="M93.2 34.2c1.4.4 2.7 1.1 3.6 2.2 1.5 1.7.8 4-1.2 3.9 3.4.7 4.6-2.7 3.3-5.9 0 0-2.5-4.1-5.7-.2z" fill="#010101" opacity=".3"/></svg>