<svg xmlns="http://www.w3.org/2000/svg"><path d="M83.81 43.36A8.25 8.25 0 0 0 82 46c-1 2 1 7 7 8s11 2 12-3-13.38-8.27-17.19-7.64z" opacity=".2"/><path d="M82.78 44.75L102 19s-3.23 26.83-3.62 29.81C97 55 79 55 82.78 44.75z" fill="#fff"/><path d="M82.78 44.75C91 51 96 40 97.93 24.46L102 19s-3.23 26.83-3.62 29.81C97 55 79 55 82.78 44.75z" opacity=".15"/><path d="M98.85 45.06S89 52 85 41.75L86.31 40S91 48 99.1 43zM89.87 35.25S93.41 43 99.7 38l.25-2c-3.21 1.6-6.24 1.28-8.94-2.29zM94 29.66s2 4.21 6.46 1.77l.27-2.22s-3.38 2-5.58-1.09z"/></svg>