<svg xmlns="http://www.w3.org/2000/svg"><path d="M44.6 62C55.1 45 63.9 28.7 67 15c3.8-1.3 24.3 18 42 38.5 0 0-29.124-31.863-64.4 8.5z" fill="currentColor"/><path d="M68 15c8.4 4.8 25.2 22.5 41 38.5-9.9-8.7-17.9-12.4-24.7-12.8L68 15z" fill="#010101" opacity=".1"/><path d="M113.727 37.892s11 5 10 12-10 5-10-1-3-10 0-11zM115.227 33.792s4.2-1.4 5.7.7c1.5 2.1-1.4 3.8-2.9 2.2-1.5-1.6-3.3-1.9-2.8-2.9zM48.8 25.5s-10 4.5-9.1 10.9 9.1 4.5 9.1-.9 2.7-9.1 0-10zM33.5 46.8s.7 5.6-2.4 6.9-4.4-2.8-2-4.2 3.3-3.6 4.4-2.7z"/></svg>