<svg xmlns="http://www.w3.org/2000/svg"><path d="M133 48.8c-1.9-8.6-10.2-12.6-28.2-9.5C99.4 32 89 19 82 15l-3.7-2-21.3-.2c-3.2.3-5.8.7-7.2 1.5 0 0-.7 3-1.9 4.1-2.9 2.4 5.1 3.4 5.1 3.4l-2 3 4 2v3c1.8 6.9-.3 14-.3 14s1.2 1.6-17.2.4C19.1 43 23 65.8 36 63.8c0 0 3.4-.3 8.9-1 8.4 0 35.625-3.378 49.4-9.4 3.8-1 7.6-1.6 11.5-1.9 3.7 2.8 6.8 6.3 9.2 10.2l.3-.2-.2.1c0 .2 19.9-3.8 17.9-12.8zm-21.5 3c1.7.2 3.2.9 4.5 2-1.4-.9-2.9-1.6-4.5-2z" fill="#fff"/><path d="M105.8 51.5c3.66 2.92 6.95 6.18 9.2 10.5 0 0 6.25-2.82 1.57-7.91 0 0-1.591-3.059-10.77-2.59z" opacity=".5"/><path d="M37.76 63.389s33.126-.85 56.862-9.958c0 0 16.7-4.6 21.7.4s-.9 8-.9 8 19.9-4 17.9-13-11-13-31-9S83.845 57.058 37.76 63.389z" opacity=".25"/><path d="M70.9 13c11 11.6 22.015 25.619 18.915 31.619 5.104-2.535 8.188-4.208 14.985-5.319-2.9-4.2-6.019-8.212-9.219-12.112C95.581 27.188 83 14 78 13z" opacity=".1"/><path d="M54.425 43.948c9 2 29.205-2.018 45.505-11.418l-8.59-9.92c-.5 2-30.74 7.69-36.34 8.39.9 3.5.225 7.848-.575 12.948z"/><path d="M69.9 26L83 22.2c2-.6 4 .6 4.6 2.5l3.3 11.4c.6 2-.6 4-2.5 4.6l-13.1 3.8c-2 .6-4-.6-4.6-2.5l-3.3-11.4c-.6-2 .6-4 2.5-4.6z" fill="#ffe000"/><path d="M73.9 28.5l7.1-2c1.5-.4 3 .4 3.5 1.9l1.9 6.6c.4 1.5-.4 3-1.9 3.5l-7.1 2c-1.5.4-3-.4-3.5-1.9L72 31.9c-.4-1.5.4-3 1.9-3.4z"/></svg>