<svg xmlns="http://www.w3.org/2000/svg"><path d="M33.574 59.757L68 21s2.1-3 6.4 0c4.3 3 44.457 27.354 44.457 27.354 1.574 1.05 1.16 2.05 1.36 2.85-.3 1.3-7.497-8.245-46.817-3.804-39.38 5.46-40.3 14.4-39.3 15.4s-.526-1.043-.526-3.043z" fill="#93505c"/><path d="M33.574 59.757L68 21s2.1-3 6.4 0c-3.2-1-23.3 27.5-27 31.8-13.7 4.5-14 9.2-13.2 9.9 1 1.1-.626-.943-.626-2.943z" opacity=".14"/><path d="M42.9 64.6c-.3-10 64.4-16.3 67.5-8.5 2.6.8 15.9-4.8 6.4-7.2s-25.1-5.9-57.6.9-25.9 13.7-25.9 13.7 7.9 2.4 9.6 1.1z"/></svg>