<svg xmlns="http://www.w3.org/2000/svg"><path d="M123.9 43.8c-5 1.2-7.17 4.766-13.67 4.966-1.2-.2-2.2-.8-2.9-1.7l-1-1.7S104.6 30.7 103.4 28.3c-3.1-6.4-4-10.3-32.2-10.3-2.5-.2-5.1 0-7.6.5-8.8 1-16.5 4.4-13.6 13.6.9 5.8 1.892 10.653 3.892 16.153-.6 1-1.5 1.9-2.5 2.4-.6.2-1.2.4-1.7.6-3 .6-7.492-.153-12.892-1.553-11.1-2.8-10.7 6.4-8.4 9.5 2.3 3.1 7.3 4.5 15.5 2.1 11.2-3.4 27.5-7.5 41-8.3 15-.6 25.2 1 32.2 3.4 6.5 2.2 16.3-1.8 16.1-5.7-.2-3.9-4.3-8.1-9.3-6.9z" fill="#24425b"/><path d="M58.1 57.3c8.7-2.6 17.6-4.2 26.7-4.8 16.1-.8 33.7 3.9 33.7 3.9 2.1.7 4.5.8 6.6.1 0 0-24.1-9.5-40.9-8.2-8.4.7-24.9 5-24.9 5s-19.8 6.4-30.9 6.3c.2.2 3.2 7.6 29.7-2.3z" opacity=".15"/><path d="M51.4 38.9s33.3-13.2 53.5-4l1 7.4s-11.5-8-52.7 3.4l-1.8-6.8z"/><path d="M83.5 19.1S44 13 50 32.1c1 6.7 2.8 13.2 5.3 19.4 0 0 12.7-2.1 18.2-4.2l-4.8-16.2c0 .1-3.7-11.1 14.8-12z" opacity=".15"/></svg>