<svg xmlns="http://www.w3.org/2000/svg" id="Layer_1"><path class="st0" d="M75.9 27.8c.1 2.2-2.7 5.4-2.7 5.4s-1.524-2.84-3.624-3.84-3.946.946-3.046 1.546L68.6 35.6c-.9.1-1.8.1-2.6.1-4.9-.6-8.5-5.1-7.9-10 .6-4.9 5.1-8.5 10-7.9 4.9.6 8.4 5.1 7.8 10z" id="path13"/><g id="g17" fill="#010101" opacity=".25"><path d="M75.9 27.8c.1 2.2-2.7 5.4-2.7 5.4l-1.6-2.7c1 0 3.6-7.3 2.1-9.7 1.7 1.9 2.5 4.5 2.2 7z" id="path15"/></g><path d="M66 31s3.7 5.7 4.8 10.3c.6 2.2 1 4.4 1.2 6.7 1 4 8 2 8-1 0 0-6.12-13.865-8.925-17.06-2.7-3.809-6.319-1.169-5.075 1.06z" id="path28" fill="#93505c"/></svg>