<svg xmlns="http://www.w3.org/2000/svg"><path d="M46.8 53.4S34 49 36 37c2-11 14-10 14-10 1.4-5.4 6.4-9.2 12-9 10 0 15 6 15 6s1-7 11-7c5.8-.1 11.1 3 14 8 0 0 13-3 17 6s-14.1 15.3-14.1 15.3-7.9-9.3-6.4-9.8c0 0-4.5 7.5-17.5.5 0 0-7 10-17 4 0 0-7 7.7-15 2.8l-2.2 9.6z" fill="#fff"/><path d="M48 39s13 6 16-5c0 0 15 4 18-4 0 0 10 7 18 2 0 0 4.4 12.1 9.7 9.1-1.8 1.2-3.7 2.2-5.7 2.9l-56 3s-3.7-.2-4.8-1.1c0 0 5.8-.9 4.8-6.9z" opacity=".1"/><path d="M44.2 62.8c1-.8 23.9-19.2 66-7.1 0 0 3.8 1 3.8-1.7l-4-3.6s-10-9-11-14.4c0 0-9 6.3-17-.9 0 0-5 9-18 5.4 0 0-5 8.1-15 2.7 0 0-3 15.3-5 17.2s.2 2.4.2 2.4z" fill="#fff"/><path d="M45.5 60.2C52 54.9 59.7 51.4 68 50c18-4 39.1 1.6 39.1 1.6s5.9 1.1 5.9 3.3-3 .2-3 .2c-24.3-5.3-47.7-5.6-66 8 0-.1-1-.7 1.5-2.9zM64 40s1 8.6-1 10c0 0 0-8.6 1-10zM49.4 43s.3 10.4-1.8 12c0 0 .7-10.3 1.8-12zM81.9 35.7c-.2 2.4-.1 4.8.3 7.1.8 4.2 2.9 4.5 2.9 4.5-1.5.5-3.6-15.3-3.2-11.6zM99.7 38.7c.7 2.3 1.6 4.4 2.8 6.5 2 3.6 3.6 3.2 3.6 3.2-.9.9-8-13-6.4-9.7z" opacity=".1"/></svg>