<svg xmlns="http://www.w3.org/2000/svg"><path d="M43.5 62.2s-7.5-.2-9.4-3.8c-.2-1.1-.2-2.3-.1-3.5.8-8.9 10.2-28.4 30.9-34.9 5.2-1.6 10.7-2.3 16.1-2.1 32 1 44 33 42 43-1 3-6 5-7.6 3.5C111 57 99.9 53.4 83 54c-32 0-39.5 8.2-39.5 8.2z" fill="#fff"/><path d="M83 20s16 8 18 25l-6 10c15 0 21 10 21 10s5 0 7-4.3c.7-5 .1-14.2-11.1-28.2 0 0-10.9-13.5-28.9-14.5 0 0-4 1 0 2z" opacity=".05"/><path d="M43.6 61.9s-7.5-.1-9.2-3.6c-1.4-2 14.7-11.9 47-11.3s43.4 11.7 41.4 14.1c-2 4.1-7.5 3.9-7.5 3.9 0-.7-2.6-11.9-31.9-10.6-34.4.6-39.8 7.5-39.8 7.5z" opacity=".2"/><path d="M34.8 57.7s4.9 4.1 7 4.3l1.2-.6-7.3-4.7s-1 1.2-.9 1zM41 53.2l7.7 5.8 2.3-.8-7.4-6zM54.6 49.2l5.1 7.4 3.2-.6-4.7-7.5zM70.4 47.2l2.3 7.6 2.9-.2-1-7.6zM89.1 47.3l-1.3 7.1 2.8.1 2.3-6.8zM105.2 49.9l-3.8 6.1 2.4.7 4.3-6zM118.9 55.6l-7.6 4.1 2.5 1.6 8-3.2z" opacity=".1"/><ellipse cx="96.2" cy="32.5" rx="8.2" ry="9.5"/><path d="M122.2 51.8c-3.4-.5-6.3-2.8-7.5-6-1.1-2.9-.9-6.1.7-8.8 3.1 4.4 5.5 9.4 6.8 14.8zM52.9 32.2c-1.8 5-6.6 7.7-10.9 6.2-.4-.1-.7-.3-1-.5 0 0 5-8 11.8-12 .8 2.1.8 4.3.1 6.3zM81.1 23.6c-1.3 5.1-5.9 8.3-10.3 7.1s-6.7-5.9-5.7-10.8C71 18 74 18 80.7 18c.7 1.8.9 3.7.4 5.6zM50 50.2V50c.1-5.1 4.4-9.1 9.5-9 4-.1 7.6 2.4 9 6.1C58 48 54 49 50 50.2z"/></svg>